<?xml version="1.0" standalone="no"?><!DOCTYPE svg PUBLIC "-//W3C//DTD SVG 1.1//EN" "http://www.w3.org/Graphics/SVG/1.1/DTD/svg11.dtd"><svg width="200" height="200" viewBox="0 0 200 200" version="1.1" xmlns="http://www.w3.org/2000/svg" xmlns:xlink="http://www.w3.org/1999/xlink"><defs><style type="text/css"><![CDATA[
@font-face { font-family: ifont; src: url(http://at.alicdn.com/t/font_1442373896_4754455.eot?#iefix) format(embedded-opentype), url(http://at.alicdn.com/t/font_1442373896_4754455.woff) format(woff), url(http://at.alicdn.com/t/font_1442373896_4754455.ttf) format(truetype), url(http://at.alicdn.com/t/font_1442373896_4754455.svg#ifont) format(svg); }

]]></style></defs><g class="transform-group"><g transform="scale(0.1953125, 0.1953125)"><path d="M876.804096 993.947648 139.894784 993.947648c-38.35904 0-69.552128-31.195136-69.552128-69.552128L70.342656 611.444736c-0.17408-2.052096-4.20864-77.307904 61.710336-147.625984 73.099264-77.985792 199.806976-117.508096 376.573952-117.508096 176.785408 0 303.37024 39.522304 376.295424 117.526528 65.76128 70.31808 61.519872 145.608704 61.310976 148.772864l0.120832 311.785472C946.356224 962.752512 915.144704 993.947648 876.804096 993.947648M508.626944 381.085696c-164.421632 0-285.85984 36.827136-351.205376 106.520576-55.728128 59.449344-52.373504 122.099712-52.338688 122.724352l0.034816 314.064896c0 19.17952 15.597568 34.777088 34.777088 34.777088l736.907264 0c19.17952 0 34.777088-15.597568 34.777088-34.777088l-0.086016-312.950784c0.190464-3.6864 3.078144-65.552384-52.668416-124.6208C793.513984 417.652736 672.423936 381.085696 508.626944 381.085696M324.56704 392.73472c-9.476096 0-17.231872-7.59808-17.38752-17.108992-0.190464-13.406208-2.574336-328.060928 208.396288-335.486976 47.572992-1.722368 88.018944 13.824 119.734272 46.1312 86.870016 88.522752 77.91616 273.270784 77.481984 281.07776-0.503808 9.598976-8.554496 17.057792-18.292736 16.41472-9.580544-0.503808-16.93696-8.69376-16.431104-18.274304 0.086016-1.773568 8.538112-177.375232-67.622912-254.910464-24.918016-25.368576-55.537664-37.036032-93.63456-35.698688-177.289216 6.260736-174.907392 297.248768-174.854144 300.187648 0.155648 9.61536-7.512064 17.5104-17.108992 17.666048L324.56704 392.732672zM571.625472 624.994304 444.98944 624.994304c-103.407616 0-172.87168-116.344832-172.87168-225.019904l17.38752 0c0 100.25984 62.476288 207.630336 155.48416 207.630336l126.63808 0c93.00992 0 155.467776-107.372544 155.467776-207.630336l17.38752 0C744.480768 508.65152 675.033088 624.994304 571.625472 624.994304M518.496256 572.35456l-20.379648 0c-18.362368 0-33.28-14.91968-33.28-33.28 0-18.362368 14.91968-33.28 33.28-33.28l20.379648 0c18.362368 0 33.28 14.91968 33.28 33.28C551.776256 557.43488 536.856576 572.35456 518.496256 572.35456M498.116608 523.180032c-8.763392 0-15.89248 7.129088-15.89248 15.89248s7.129088 15.89248 15.89248 15.89248l20.379648 0c8.763392 0 15.89248-7.129088 15.89248-15.89248s-7.129088-15.89248-15.89248-15.89248L498.116608 523.180032z" fill="#a9b7b7"></path></g></g></svg>