<?xml version="1.0" standalone="no"?><!DOCTYPE svg PUBLIC "-//W3C//DTD SVG 1.1//EN" "http://www.w3.org/Graphics/SVG/1.1/DTD/svg11.dtd"><svg width="128" height="128" viewBox="0 0 128 128" version="1.1" xmlns="http://www.w3.org/2000/svg" xmlns:xlink="http://www.w3.org/1999/xlink"><defs><style type="text/css"><![CDATA[
@font-face { font-family: ifont; src: url("http://at.alicdn.com/t/font_1442373896_4754455.eot?#iefix") format("embedded-opentype"), url("http://at.alicdn.com/t/font_1442373896_4754455.woff") format("woff"), url("http://at.alicdn.com/t/font_1442373896_4754455.ttf") format("truetype"), url("http://at.alicdn.com/t/font_1442373896_4754455.svg#ifont") format("svg"); }

]]></style></defs><g class="transform-group"><g transform="scale(0.125, 0.125)"><path d="M971.504941 171.158588c0-36.909176-45.673412-68.502588-132.111059-91.346824-79.480471-21.022118-184.922353-32.587294-296.914824-32.587294-111.962353 0-217.419294 11.580235-296.899765 32.587294-86.422588 22.844235-132.126118 54.437647-132.126118 91.346824l0.015059 148.976941L113.438118 320.135529c0 0.030118 0.015059 0.045176 0.015059 0.075294l0 7.062588 0.587294 0c1.520941 9.261176 6.023529 18.160941 13.402353 26.639059-52.615529 20.630588-80.128 46.049882-80.128 74.661647l0 148.976941c0 0.030118 0 0.060235 0 0.090353l0 7.062588 0.587294 0c3.734588 22.768941 25.419294 43.324235 63.774118 60.852706-2.695529-0.828235-5.421176-1.671529-8.056471-2.529882-8.086588 9.999059-12.212706 20.585412-12.212706 31.653647l0 148.976941c0 0.030118 0 0.060235 0 0.090353l0 7.062588 0.587294 0c5.541647 33.852235 50.718118 62.855529 131.508706 84.208941 79.495529 21.022118 184.937412 32.587294 296.914824 32.587294 111.992471 0 217.419294-11.565176 296.914824-32.587294 86.166588-22.768941 131.809882-54.241882 132.096-91.000471l0.015059 0 0-0.316235c0 0 0 0 0-0.030118l-0.225882-144.790588c0.135529-1.385412 0.135529-2.770824 0.225882-4.171294 1.942588-28.581647-27.648-49.965176-55.597176-66.349176 7.529412-9.652706 11.414588-19.787294 11.504941-30.418824l0-0.316235c0-0.030118 0-0.030118 0-0.030118l-0.210824-144.820706c0.135529-1.370353 0.210824-2.755765 0.210824-4.141176 0-11.851294-4.758588-23.130353-14.004706-33.761882 52.419765-20.540235 79.917176-45.854118 80.128-74.345412l0.015059 0 0-0.331294 0 0-0.225882-144.820706C971.429647 173.929412 971.504941 172.544 971.504941 171.158588zM153.253647 375.085176c22.000941 13.733647 52.916706 25.976471 92.325647 36.382118 79.480471 21.022118 184.922353 32.587294 296.899765 32.587294 111.992471 0 217.419294-11.580235 296.914824-32.587294 9.472-2.499765 18.416941-5.104941 26.88-7.815529-1.566118 0.572235-3.072 1.174588-4.683294 1.746824 9.984 7.951059 15.179294 15.826824 15.179294 23.160471 0 0.768-0.075294 1.551059-0.195765 2.319059l-0.030118 0 0 0.165647c-6.159059 39.604706-157.244235 92.852706-400.203294 92.852706-245.579294 0-390.038588-53.052235-399.917176-91.346824-0.346353-1.355294-0.512-2.650353-0.512-3.990588C75.911529 411.753412 103.168 392.146824 153.253647 375.085176zM75.911529 577.596235l0-101.797647c66.319059 50.507294 237.552941 76.709647 400.429176 76.709647 111.977412 0 217.419294-11.565176 296.914824-32.587294 46.516706-12.288 81.212235-27.136 103.348706-43.971765l0.165647 101.586824c-0.030118 39.830588-152.350118 95.352471-400.429176 95.352471C228.367059 672.903529 76.062118 617.396706 75.911529 577.596235zM520.432941 918.979765c-247.973647 0-400.278588-55.476706-400.414118-95.292235l0-101.797647c66.319059 50.507294 237.552941 76.709647 400.414118 76.709647 111.992471 0 217.419294-11.565176 296.914824-32.587294 46.531765-12.288 81.227294-27.120941 103.348706-43.971765l0.165647 101.616941C920.816941 863.457882 768.481882 918.979765 520.432941 918.979765zM920.847059 674.665412c0 0.798118-0.075294 1.566118-0.195765 2.319059l-0.030118 0 0 0.180706c-6.144 39.589647-157.244235 92.852706-400.203294 92.852706-245.579294 0-390.023529-53.052235-399.917176-91.346824-0.331294-1.355294-0.496941-2.650353-0.496941-4.005647 0-6.565647 4.186353-13.522824 12.197647-20.615529 14.064941 5.300706 29.801412 10.270118 47.224471 14.848 79.480471 21.022118 184.922353 32.587294 296.914824 32.587294 111.977412 0 217.419294-11.565176 296.914824-32.587294 41.170824-10.887529 73.095529-23.762824 95.216941-38.234353C895.744 645.421176 920.847059 664.079059 920.847059 674.665412zM542.464 415.457882c-247.958588 0-400.278588-55.476706-400.414118-95.277176l-0.015059-101.782588c66.334118 50.492235 237.568 76.709647 400.429176 76.709647 111.992471 0 217.419294-11.580235 296.914824-32.587294 46.531765-12.303059 81.227294-27.136 103.363765-43.956706l0.165647 101.586824C942.878118 359.936 790.558118 415.457882 542.464 415.457882zM942.727529 173.492706l-0.030118 0 0 0.165647c-6.159059 39.589647-157.259294 92.852706-400.218353 92.852706-245.564235 0-390.023529-53.052235-399.902118-91.346824-0.346353-1.355294-0.527059-2.665412-0.527059-3.990588 0-39.815529 152.335059-95.337412 400.429176-95.337412 248.109176 0 400.444235 55.521882 400.444235 95.337412C942.908235 171.926588 942.817882 172.709647 942.727529 173.492706z" fill="#a9b7b7"></path></g></g></svg>