<?xml version="1.0" standalone="no"?><!DOCTYPE svg PUBLIC "-//W3C//DTD SVG 1.1//EN" "http://www.w3.org/Graphics/SVG/1.1/DTD/svg11.dtd"><svg width="128" height="128" viewBox="0 0 128 128" version="1.1" xmlns="http://www.w3.org/2000/svg" xmlns:xlink="http://www.w3.org/1999/xlink"><defs><style type="text/css"><![CDATA[
@font-face { font-family: ifont; src: url("http://at.alicdn.com/t/font_1442373896_4754455.eot?#iefix") format("embedded-opentype"), url("http://at.alicdn.com/t/font_1442373896_4754455.woff") format("woff"), url("http://at.alicdn.com/t/font_1442373896_4754455.ttf") format("truetype"), url("http://at.alicdn.com/t/font_1442373896_4754455.svg#ifont") format("svg"); }

]]></style></defs><g class="transform-group"><g transform="scale(0.125, 0.125)"><path d="M239.53973 794.810335l-1.703698-0.501443c-1.791299-0.52863-3.390278-1.482177-4.750619-2.835469-3.097266-3.103308-4.134388-7.765318-2.62301-11.856409 21.381812-58.805773 43.65877-103.51274 66.22572-132.916634 21.463372-27.965014 43.201632-42.144372 64.609623-42.144372 14.386783 0 27.917689 6.225747 40.215126 18.504053 19.34986 19.347846 20.076852 38.538614 17.277632 51.228747-4.37504 19.739536-20.852175 39.767049-48.971247 59.518668-29.238759 20.540032-71.236122 40.832364-124.822055 60.31413-1.260656 0.457139-2.573671 0.690743-3.896756 0.690743L239.53973 794.812349zM360.061257 627.237747c-17.987506 0.879036-35.720263 19.927829-47.430669 35.753491-14.93253 20.208758-29.987903 48.175785-44.751272 83.12878l-7.723028 18.285552 18.285552-7.724035c31.437859-13.280185 57.255126-26.795987 76.734878-40.172835 30.210431-20.774643 39.235399-37.103762 41.486858-47.144705 2.335033-10.539366-1.322078-20.443368-11.176742-30.297026-7.994895-7.968715-15.904202-11.837277-24.18808-11.837277l-1.041149 0L360.061257 627.237747zM462.850026 767.042677c-3.625896 0-7.064506-1.769147-9.201177-4.731487-3.260387-4.536146-2.764985-10.708527 1.186144-14.666705 0.124857-0.124857 13.217756-13.334558 26.315689-36.472427 9.837547-17.389399 22.179288-45.214452 25.110413-79.0246l0.493388-5.677986-5.189633-2.357185c-21.036441-9.554604-44.816721-31.643269-57.119192-43.957824-12.320596-12.308513-34.408254-36.088793-43.962858-57.124227l-2.357185-5.189633-5.677986 0.492381c-33.768864 2.929112-61.617076 15.283943-79.032655 25.133572-23.007978 13.007311-36.33448 26.188818-36.691935 26.553321l0.251728-0.260791c-2.083304 2.061152-5.0537 3.244276-8.149959 3.244276-2.410551 0-4.739543-0.731019-6.559036-2.056118-4.520036-3.269449-5.981067-9.253537-3.496004-14.247829 2.246424-4.427399 23.138876-44.918419 55.617884-85.151669 20.16546-24.980522 40.737714-44.928488 61.148861-59.290098 23.143911-16.321064 46.374417-25.61387 69.052126-27.62367l3.561454-0.316171 2.156809-2.852586c4.58045-6.059607 9.439816-12.005432 14.44317-17.672342 30.684688-34.781819 68.858799-62.404482 113.464068-82.103742 51.216664-22.614274 111.144139-34.702273 178.116989-35.925673l5.725311-0.104719 16.892991-0.017118 0 11.327779c0 71.606666-12.127268 135.343296-36.046503 189.438726-19.66301 44.556937-47.274597 82.733063-82.070513 113.472124-6.070683 5.304421-12.036646 10.168821-17.699529 14.431087l-2.865676 2.155802-0.316171 3.57253c-2.008793 22.633406-11.292537 45.861897-27.593463 69.042057-14.391817 20.424237-34.343812 40.990449-59.298154 61.123688-39.02294 31.505322-77.72266 51.842965-85.084206 55.600767C466.342003 766.634877 464.656429 767.042677 462.850026 767.042677M603.203724 597.034364c-27.614608 14.040404-49.815041 20.022479-60.589017 22.33838l-5.853189 1.258642-0.486339 5.967977c-1.607034 19.704294-6.146201 39.335083-13.495664 58.344606l-10.167814 26.303606 22.532714-16.956426c38.559759-29.017238 65.12617-58.133155 78.960157-86.54121l10.520234-21.605347L603.203724 597.034364zM420.808359 513.126233c1.580854 3.544336 4.385109 8.700741 9.36027 15.769275 7.520638 10.70752 18.292601 23.241582 30.327233 35.286283 11.959114 11.959114 24.496196 22.732083 35.302394 30.335288 14.964751 10.536345 21.3073 11.354966 22.895203 11.354966 5.789754-0.016111 23.303003-3.403368 45.739054-12.428336 19.59454-7.881113 48.866528-22.551846 78.52215-48.023741l0.087601 0.086595 5.696111-5.125191c66.30728-60.127851 103.391911-151.188089 107.245369-263.337128l0.296033-8.631264-8.631264 0.299053c-113.83864 3.947102-205.773887 42.028577-265.868509 110.12917-51.9064 58.843029-62.944188 118.257984-62.968354 127.517562l-0.016111 6.241858L420.808359 513.126233zM418.331351 410.898315c-28.468471 13.815863-57.634732 40.413488-86.687213 79.055814l-16.949378 22.541777 26.300585-10.180904c19.040738-7.371615 38.707776-11.921858 58.452346-13.527885l5.978047-0.486339 1.251594-5.865272c2.29677-10.753838 8.254678-32.931112 22.355498-60.629294l10.886751-21.38584L418.331351 410.898315zM605.096722 476.12719c-36.799674 0-66.738239-29.947627-66.738239-66.75737 0-36.803702 29.938564-66.746294 66.738239-66.746294 36.809743 0 66.756363 29.942592 66.756363 66.746294C671.853085 446.179563 641.905458 476.12719 605.096722 476.12719M605.096722 365.286132c-24.29582 0-44.062543 19.775785-44.062543 44.083688 0 24.307903 19.765716 44.083688 44.062543 44.083688 24.306896 0 44.083688-19.775785 44.083688-44.083688C649.18041 385.061916 629.403618 365.286132 605.096722 365.286132M504.36407 16.445921c-278.228375 0-503.777039 225.548665-503.777039 503.777039s225.548665 503.777039 503.777039 503.777039 503.777039-225.548665 503.777039-503.777039S782.592445 16.445921 504.36407 16.445921M504.36407 993.773458c-261.534753 0-473.550498-212.015745-473.550498-473.550498S242.829317 46.672463 504.36407 46.672463s473.550498 212.014738 473.550498 473.549491S765.898823 993.773458 504.36407 993.773458" fill="#a9b7b7"></path></g></g></svg>