<?xml version="1.0" standalone="no"?><!DOCTYPE svg PUBLIC "-//W3C//DTD SVG 1.1//EN" "http://www.w3.org/Graphics/SVG/1.1/DTD/svg11.dtd"><svg width="200" height="200" viewBox="0 0 200 200" version="1.1" xmlns="http://www.w3.org/2000/svg" xmlns:xlink="http://www.w3.org/1999/xlink"><defs><style type="text/css"><![CDATA[
@font-face { font-family: ifont; src: url("http://at.alicdn.com/t/font_1442373896_4754455.eot?#iefix") format("embedded-opentype"), url("http://at.alicdn.com/t/font_1442373896_4754455.woff") format("woff"), url("http://at.alicdn.com/t/font_1442373896_4754455.ttf") format("truetype"), url("http://at.alicdn.com/t/font_1442373896_4754455.svg#ifont") format("svg"); }

]]></style></defs><g class="transform-group"><g transform="scale(0.1953125, 0.1953125)"><path d="M960.014111 90.989108 233.026944 90.989108c-85.412356 0-154.907263 69.494907-154.907263 154.907263l0 556.523702c-0.451559 4.71879-0.722494 9.505314-0.722494 14.359571 0 82.048243 66.762976 148.811218 148.811218 148.811218L233.026944 965.590863l707.163734 0 28.899766 0L960.014111 90.989108zM328.215549 147.433964l200.537284 0 0 347.384222-107.493584-49.310226-93.043701 45.584866L328.215549 147.433964zM233.026944 147.433964l38.743749 0 0 434.151255 150.278785-73.62667 163.148212 74.823301L585.197689 147.433964l318.936014 0 5.418706 520.534462L226.208405 667.968426c-34.56683 0-66.356573 11.966309-91.643868 31.812321L134.564537 245.873793C134.564537 191.596419 178.726992 147.433964 233.026944 147.433964zM233.026944 909.123429c-54.299951 0-98.462407-44.162455-98.462407-98.439829l0-1.106319c3.747938-47.526569 43.169026-85.163999 91.643868-85.163999L910.139436 724.413282l1.919125 184.732725L233.026944 909.146007z" fill="#a9b7b7"></path></g></g></svg>