<?xml version="1.0" standalone="no"?><!DOCTYPE svg PUBLIC "-//W3C//DTD SVG 1.1//EN" "http://www.w3.org/Graphics/SVG/1.1/DTD/svg11.dtd"><svg width="128" height="128" viewBox="0 0 128 128" version="1.1" xmlns="http://www.w3.org/2000/svg" xmlns:xlink="http://www.w3.org/1999/xlink"><defs><style type="text/css"><![CDATA[
@font-face { font-family: ifont; src: url("http://at.alicdn.com/t/font_1442373896_4754455.eot?#iefix") format("embedded-opentype"), url("http://at.alicdn.com/t/font_1442373896_4754455.woff") format("woff"), url("http://at.alicdn.com/t/font_1442373896_4754455.ttf") format("truetype"), url("http://at.alicdn.com/t/font_1442373896_4754455.svg#ifont") format("svg"); }

]]></style></defs><g class="transform-group"><g transform="scale(0.125, 0.125)"><path d="M857.337701 954.796872c-38.518269 0-76.304873-31.872918-124.146485-72.226998-60.798714-51.284013-136.466068-115.109668-221.533512-115.109668-85.306898 0-163.206082 62.464657-225.799676 112.655779-49.467645 39.666418-88.540546 70.996984-127.271662 70.998007-18.84623 0-45.208645-7.517207-63.777559-43.332924-12.057617-23.25668-20.10285-56.319703-25.316595-104.052844-6.511297-59.633169-5.611811-121.893164 2.673899-185.0506 7.635911-58.205657 21.745257-116.565832 40.804335-168.772868 40.443108-110.787222 99.376335-187.155541 161.687496-209.523991 6.0416-2.172479 12.480242-3.275603 19.123546-3.275603 33.939997 0 67.020416 28.568662 105.32379 61.648059 35.433 30.599925 79.530334 68.683289 112.551402 68.683289 35.145451 0 84.645842-39.334867 124.419707-70.941726 42.808992-34.017768 76.621075-60.886719 109.738333-60.886719 3.566222 0 7.095605 0.322341 10.485819 0.958838 35.222199 6.635117 67.804269 30.581506 96.864118 71.178109 24.647353 34.43323 46.592155 81.290421 63.461357 135.505183 34.725896 111.601774 46.185902 243.165182 31.44313 360.955912-6.121418 48.900733-14.666024 82.706677-26.888394 106.391099C902.326335 947.129238 876.056018 954.796872 857.337701 954.796872zM511.657704 706.061834c48.445362 0 96.969519 14.771425 148.344606 45.156456 42.484603 25.128307 79.82914 56.627718 112.777553 84.419691 20.107967 16.962324 39.102576 32.983205 55.178717 43.88551 18.467607 12.523221 26.698059 13.876032 29.380144 13.876032 3.364631 0 7.954159-8.388041 9.281387-10.959609 8.566096-16.598027 15.47239-45.483914 20.527522-85.857437 13.493316-107.803261 2.597151-233.070266-29.145807-335.088778-29.065989-93.417623-72.094992-156.319232-112.433722-164.464749-1.324158 0.150426-7.941879 1.401929-23.714098 11.70867-14.022365 9.163707-30.321586 22.115694-47.577598 35.827997-49.707099 39.499619-106.048291 84.270289-162.617681 84.270289-55.863309 0-107.299795-44.420699-152.682401-83.612303-15.756869-13.608949-30.640857-26.462698-43.580564-35.504632-13.155624-9.194406-19.312858-10.851139-21.078061-11.148921-43.493583 16.426111-90.77647 82.286098-123.670647 172.390255-37.044708 101.476159-51.66673 220.336244-40.117696 326.103126 4.243651 38.854936 10.565636 66.597791 18.787902 82.45699 3.3984 6.554276 6.04467 8.880251 7.023974 9.575076 0.556679 0.396019 0.936325 0.6191 2.24411 0.6191 3.62762 0 12.535501-1.824555 31.43392-14.046924 16.741289-10.827603 36.505425-26.675546 57.42999-43.453674 33.828456-27.126824 72.17174-57.872059 115.298979-82.317821C414.784376 720.399377 463.492728 706.061834 511.657704 706.061834zM351.667873 657.764851c0 12.760628-14.897292 23.105231-33.245172 23.105231l0 0c-18.36937 0-33.244148-10.344602-33.244148-23.105231L285.178553 493.755474c0-12.761652 14.874779-23.106254 33.244148-23.106254l0 0c18.34788 0 33.245172 10.344602 33.245172 23.106254L351.667873 657.764851zM236.418013 609.004311c-12.760628 0-23.105231-14.897292-23.105231-33.244148l0 0c0-18.36937 10.344602-33.244148 23.105231-33.244148l164.009378 0c12.761652 0 23.106254 14.874779 23.106254 33.244148l0 0c0 18.34788-10.344602 33.244148-23.106254 33.244148L236.418013 609.004311zM812.355207 462.280622c0 25.296129-20.62576 45.796022-46.106084 45.796022-25.496697 0-46.149063-20.500916-46.149063-45.796022 0-25.345248 20.652366-45.848211 46.149063-45.848211C791.728424 416.432411 812.355207 436.935374 812.355207 462.280622zM782.204513 626.252137c0 40.915875-32.472576 74.090439-72.479755 74.090439-40.023552 0-72.458265-33.174564-72.458265-74.090439 0-40.958854 32.43369-74.173326 72.458265-74.173326C749.730914 552.078811 782.204513 585.293283 782.204513 626.252137zM484.797963 319.481312c-8.040117 0-16.067954-3.137457-22.092158-9.379625-6.786567-7.03216-40.288588-44.145429-33.278941-84.343967 2.550079-14.625092 11.413957-34.92851 39.158858-48.598858 27.194362-13.400195 58.098209-14.117532 87.983867-14.811334 40.544415-0.941442 65.99097-2.520403 77.753875-22.255887 1.195222-2.00568 1.473561-3.208065 1.477654-3.471055-0.621147-4.099365-13.400195-13.948687-23.172769-17.830087-15.755846-6.259564-23.455201-24.108071-17.196661-39.86494 6.260587-15.756869 24.107047-23.453155 39.86494-17.196661 7.702426 3.060709 46.731324 20.093641 58.585303 54.978149 4.28356 12.604062 6.576789 32.346709-6.819313 54.82056-29.740348 49.894364-84.815711 51.173496-129.068587 52.200896-24.293289 0.563842-47.237861 1.096984-62.272275 8.505721-4.012384 1.977028-5.593392 3.656273-5.830799 4.088108-1.321088 4.767584 7.871271 21.692045 16.990976 31.139208 11.774161 12.198833 11.43033 31.634488-0.769526 43.408649C500.157789 316.621171 492.471736 319.481312 484.797963 319.481312z" fill="#a9b7b7"></path></g></g></svg>