<?xml version="1.0" standalone="no"?><!DOCTYPE svg PUBLIC "-//W3C//DTD SVG 1.1//EN" "http://www.w3.org/Graphics/SVG/1.1/DTD/svg11.dtd"><svg width="200" height="200" viewBox="0 0 200 200" version="1.1" xmlns="http://www.w3.org/2000/svg" xmlns:xlink="http://www.w3.org/1999/xlink"><defs><style type="text/css"><![CDATA[
@font-face { font-family: ifont; src: url(http://at.alicdn.com/t/font_1442373896_4754455.eot?#iefix) format(embedded-opentype), url(http://at.alicdn.com/t/font_1442373896_4754455.woff) format(woff), url(http://at.alicdn.com/t/font_1442373896_4754455.ttf) format(truetype), url(http://at.alicdn.com/t/font_1442373896_4754455.svg#ifont) format(svg); }

]]></style></defs><g class="transform-group"><g transform="scale(0.1953125, 0.1953125)"><path d="M938.496 323.264 85.504 323.264c-18.112 0-32.832 14.08-32.832 31.488l0 283.392c0 17.344 14.656 31.424 32.832 31.424l32.768 0 0 314.88c0 17.408 14.72 31.488 32.832 31.488L872.96 1015.936c18.048 0 32.832-14.08 32.832-31.488l0-314.88 32.768 0c18.112 0 32.832-14.08 32.832-31.424L971.392 354.752C971.328 337.344 956.608 323.264 938.496 323.264zM446.4 921.472c0 17.344-14.656 31.488-32.832 31.488L216.768 952.96c-18.176 0-32.832-14.144-32.832-31.488l0-251.968c0-17.344 14.656-31.424 32.832-31.424l196.864 0c18.112 0 32.832 14.144 32.832 31.424L446.464 921.472zM446.4 543.616c0 17.408-14.656 31.488-32.832 31.488L151.104 575.104c-18.112 0-32.832-14.08-32.832-31.488L118.272 417.728c0-17.408 14.72-31.488 32.832-31.488l262.464 0c18.112 0 32.832 14.08 32.832 31.488L446.4 543.616zM840.128 921.472c0 17.344-14.656 31.488-32.832 31.488L610.432 952.96c-18.112 0-32.832-14.144-32.832-31.488l0-251.968c0-17.344 14.656-31.424 32.832-31.424l196.864 0c18.112 0 32.832 14.144 32.832 31.424L840.128 921.472zM905.728 543.616c0 17.408-14.72 31.488-32.832 31.488L610.432 575.104c-18.112 0-32.832-14.08-32.832-31.488L577.6 417.728c0-17.408 14.656-31.488 32.832-31.488l262.528 0c18.048 0 32.832 14.08 32.832 31.488L905.792 543.616zM366.336 322.944l301.888 0c51.712-35.648 100.608-81.984 106.368-132.48 2.88-24.64-2.624-60.736-45.056-92.928-23.488-17.856-47.424-26.88-70.912-26.88-74.816 0-117.184 88.128-140.096 166.848-27.328-100.352-80.128-229.376-170.88-229.376-26.432 0-52.864 10.944-78.4 32.704-50.56 42.88-55.552 87.488-50.752 117.312C228.928 224.832 298.88 282.176 366.336 322.944zM658.56 146.24c7.232 0 16.64 4.16 27.072 12.032 16.896 12.864 15.936 20.736 15.68 23.36-3.136 27.52-56.96 70.848-119.744 106.56C599.936 212.032 630.208 146.24 658.56 146.24zM316.224 98.944C324.544 91.968 336.64 83.648 347.584 83.648c40.64 0 82.432 102.336 106.752 201.856C377.6 246.272 298.304 190.592 291.264 145.92 290.24 139.776 287.68 123.264 316.224 98.944z" fill="#eb4f38"></path></g></g></svg>