<?xml version="1.0" standalone="no"?><!DOCTYPE svg PUBLIC "-//W3C//DTD SVG 1.1//EN" "http://www.w3.org/Graphics/SVG/1.1/DTD/svg11.dtd"><svg width="200" height="200" viewBox="0 0 200 200" version="1.1" xmlns="http://www.w3.org/2000/svg" xmlns:xlink="http://www.w3.org/1999/xlink"><defs><style type="text/css"><![CDATA[
@font-face { font-family: ifont; src: url(http://at.alicdn.com/t/font_1442373896_4754455.eot?#iefix) format(embedded-opentype), url(http://at.alicdn.com/t/font_1442373896_4754455.woff) format(woff), url(http://at.alicdn.com/t/font_1442373896_4754455.ttf) format(truetype), url(http://at.alicdn.com/t/font_1442373896_4754455.svg#ifont) format(svg); }

]]></style></defs><g class="transform-group"><g transform="scale(0.1953125, 0.1953125)"><path d="M908.6606 114.504894 117.581464 114.504894c-28.186969 0-51.036373 22.829961-51.036373 50.991348l0 535.364127c0 28.161387 22.886243 50.190099 51.071166 50.190099l363.741351 0 0 66.019623 63.528895 0 0-66.019623 363.738281 0c28.186969 0 51.072189-22.028713 51.072189-50.190099L959.696973 165.496242C959.696973 137.334855 936.842453 114.504894 908.6606 114.504894L908.6606 114.504894 908.6606 114.504894zM906.130987 697.484482 120.110053 697.484482 120.110053 560.457642 906.130987 560.457642 906.130987 697.484482 906.130987 697.484482zM120.110053 506.896772 120.110053 168.071903 906.130987 168.071903l0 338.824869L120.110053 506.896772 120.110053 506.896772zM480.110197 596.581374l66.023716 0 0 64.778352-66.023716 0L480.110197 596.581374 480.110197 596.581374zM386.682341 815.821657c-17.613146 0-33.057907 14.066367-33.057907 31.664164s14.288424 31.866778 31.902594 31.866778l255.186983 0c17.61417 0 31.892361-14.267958 31.892361-31.866778s-15.434527-31.664164-33.047674-31.664164L386.682341 815.821657 386.682341 815.821657zM386.682341 815.821657" fill="#a9b7b7"></path></g></g></svg>