<?xml version="1.0" standalone="no"?><!DOCTYPE svg PUBLIC "-//W3C//DTD SVG 1.1//EN" "http://www.w3.org/Graphics/SVG/1.1/DTD/svg11.dtd"><svg width="200" height="200" viewBox="0 0 200 200" version="1.1" xmlns="http://www.w3.org/2000/svg" xmlns:xlink="http://www.w3.org/1999/xlink"><defs><style type="text/css"><![CDATA[
@font-face { font-family: ifont; src: url("http://at.alicdn.com/t/font_1442373896_4754455.eot?#iefix") format("embedded-opentype"), url("http://at.alicdn.com/t/font_1442373896_4754455.woff") format("woff"), url("http://at.alicdn.com/t/font_1442373896_4754455.ttf") format("truetype"), url("http://at.alicdn.com/t/font_1442373896_4754455.svg#ifont") format("svg"); }

]]></style></defs><g class="transform-group"><g transform="scale(0.1953125, 0.1953125)"><path d="M892.576785 792.458553 573.584614 792.458553l0 82.70156 82.702584 0c19.573801 0 35.443233 15.866363 35.443233 35.443233 0 19.575848-15.869433 35.444257-35.443233 35.444257l-283.547915 0c-19.573801 0-35.443233-15.869433-35.443233-35.444257 0-19.576871 15.869433-35.443233 35.443233-35.443233l82.702584 0 0-82.70156L136.451742 792.458553c-39.151695 0-70.888514-31.735795-70.888514-70.885444l0-567.095829c0-39.149649 31.735795-70.888514 70.888514-70.888514l756.126067 0c39.149649 0 70.886467 31.738865 70.886467 70.888514l0 567.095829C963.464275 760.722758 931.726433 792.458553 892.576785 792.458553zM868.946598 201.735607c0-13.052271-10.577916-23.63121-23.629163-23.63121L183.706999 178.104397c-13.049201 0-23.629163 10.578939-23.629163 23.63121l0 460.764082 708.868763 0L868.946598 201.735607zM549.369096 451.386504l45.835931 72.315002c2.079358 3.76986 3.27458 7.635911 3.585665 11.606339 0.313132 3.968381-0.155543 7.78736-1.403976 11.456936-1.24741 3.670599-3.170203 7.042393-5.76633 10.119475-2.599198 3.074012-5.872754 5.602601-9.822716 7.588839-3.743254 1.981121-7.692193 3.124154-11.849886 3.421936-8.323573 0.596588-16.154935-1.883907-22.605857-6.842849-3.221368-2.480494-5.871731-5.606695-7.952112-9.375531l-38.352493-81.243349c-42.162262 23.345708-68.014046 56.111972-68.597331 56.841589l-0.62524-242.837724 212.656331 156.534126C620.98825 440.486246 545.95637 452.244035 549.369096 451.386504z" fill="#a9b7b7"></path></g></g></svg>