<?xml version="1.0" standalone="no"?><!DOCTYPE svg PUBLIC "-//W3C//DTD SVG 1.1//EN" "http://www.w3.org/Graphics/SVG/1.1/DTD/svg11.dtd"><svg width="128" height="128" viewBox="0 0 128 128" version="1.1" xmlns="http://www.w3.org/2000/svg" xmlns:xlink="http://www.w3.org/1999/xlink"><defs><style type="text/css"><![CDATA[
@font-face { font-family: ifont; src: url("http://at.alicdn.com/t/font_1442373896_4754455.eot?#iefix") format("embedded-opentype"), url("http://at.alicdn.com/t/font_1442373896_4754455.woff") format("woff"), url("http://at.alicdn.com/t/font_1442373896_4754455.ttf") format("truetype"), url("http://at.alicdn.com/t/font_1442373896_4754455.svg#ifont") format("svg"); }

]]></style></defs><g class="transform-group"><g transform="scale(0.125, 0.125)"><path d="M931.497213 674.099888l-27.965935 0L903.531278 170.700777c0-30.916127-25.01472-55.930847-55.93187-55.930847L176.403662 114.76993c-30.91715 0-55.932893 25.01472-55.932893 55.930847l0 503.399111-27.965935 0c-15.45704 0-27.967982 12.514012-27.967982 27.967982l0 83.898829c0 30.916127 25.01779 55.930847 55.933917 55.930847l783.060509 0c30.91715 0 55.93187-25.01472 55.93187-55.930847l0-83.898829C959.463148 686.6139 946.955276 674.099888 931.497213 674.099888zM176.403662 198.668759c0-15.461133 12.508895-27.967982 27.965935-27.967982l615.262852 0c15.456017 0 27.966958 12.506848 27.966958 27.967982l0 475.430106L176.403662 674.098865 176.403662 198.668759zM903.531278 757.998717c0 15.461133-12.508895 27.967982-27.965935 27.967982L148.437727 785.966699c-15.458063 0-27.966958-12.506848-27.966958-27.967982L120.470769 730.029712l783.060509 0L903.531278 757.998717zM655.827733 397.920802l-71.913866 0L583.913866 251.098875c0-13.524015-10.721179-24.468275-23.970948-24.468275l-95.884814 0c-13.249769 0-23.970948 10.94426-23.970948 24.468275l0 73.410963-71.913866 0c-13.250792 0-23.970948 10.951423-23.970948 24.468275l0 269.183765 335.596338 0L679.79868 422.389076C679.79868 408.865061 669.077501 397.920802 655.827733 397.920802zM440.087157 569.219189l-47.941895 0L392.145262 373.45355l47.941895 0L440.087157 569.219189zM535.970948 569.219189l-47.941895 0L488.029052 275.573289l47.941895 0L535.970948 569.219189zM631.856785 569.219189l-47.943942 0L583.912843 446.864514l47.943942 0L631.856785 569.219189z" fill="#a9b7b7"></path></g></g></svg>