<?xml version="1.0" standalone="no"?><!DOCTYPE svg PUBLIC "-//W3C//DTD SVG 1.1//EN" "http://www.w3.org/Graphics/SVG/1.1/DTD/svg11.dtd"><svg width="128" height="128" viewBox="0 0 128 128" version="1.1" xmlns="http://www.w3.org/2000/svg" xmlns:xlink="http://www.w3.org/1999/xlink"><defs><style type="text/css"><![CDATA[
@font-face { font-family: ifont; src: url("http://at.alicdn.com/t/font_1442373896_4754455.eot?#iefix") format("embedded-opentype"), url("http://at.alicdn.com/t/font_1442373896_4754455.woff") format("woff"), url("http://at.alicdn.com/t/font_1442373896_4754455.ttf") format("truetype"), url("http://at.alicdn.com/t/font_1442373896_4754455.svg#ifont") format("svg"); }

]]></style></defs><g class="transform-group"><g transform="scale(0.125, 0.125)"><path d="M512.3249 60.358693c-247.990071 0-449.720561 201.74584-449.720561 449.721585 0 247.980861 201.730491 449.726701 449.720561 449.726701 247.955278 0 449.720561-201.744817 449.720561-449.726701C962.045461 262.104533 760.280178 60.358693 512.3249 60.358693zM512.3249 905.418254c-218.006176 0-395.32979-177.358407-395.32979-395.337977 0-92.332918 31.809473-177.376827 85.045955-244.735957-0.242524 6.149047 1.564635 12.157901 5.252631 17.222243 4.339842 5.994528 10.781554 9.91993 17.893532 11.040451l50.652634 9.283434 55.955406 293.853631-32.601512 99.178837-0.103354 0.275269c-1.049912 1.788739-1.807159 3.442402-2.428306 5.338588-0.550539 1.757017-0.860601 3.477194-0.981351 4.64888-0.189312 0.689708-0.567935 1.964748-0.567935 3.65218l-0.050142 0.792039 0.342808 1.240247c0.153496 1.893116 0.535189 3.78828 1.325182 6.371104 0.414439 1.344624 0.846274 2.653433 1.413186 3.791349 0.963954 1.960655 2.153036 3.514033 3.152806 4.752234 1.01512 1.307785 2.031263 2.479471 2.736321 3.03308l2.309602 2.342348c1.446955 1.066285 2.841721 1.583055 3.220345 1.651616 1.360997 0.757247 2.720971 1.447978 4.167926 1.962701 0.085958 0 0.189312 0.034792 0.25685 0.070608l0 1.755993 480.342999 0 8.815783-0.206708 0-1.414209c10.973936-3.684926 18.893302-14.051017 18.893302-26.211988 0-15.258519-12.43317-27.659967-27.709085-27.659967l-428.570869 0 19.37528-67.89125c3.39226-5.579065 4.631484-12.286838 3.374864-19.399839l0.017396-0.448208L325.425186 272.681426l-1.842974-9.094122-1.809205 0.449231c-3.306302-5.166673-8.300037-9.095145-14.208607-11.144828l-73.315796-14.001899-8.076956-1.327228c72.04178-75.623351 173.690878-122.815163 286.155299-122.815163 217.971383 0 395.315464 177.342034 395.315464 395.331837C907.640364 728.059847 730.296283 905.418254 512.3249 905.418254zM425.401178 755.925499c-23.696702 0-42.968627 19.253506-42.968627 42.88267 0 23.63121 19.271926 42.849924 42.968627 42.849924 23.698748 0 42.971697-19.218714 42.971697-42.849924C468.372875 775.180028 449.099926 755.925499 425.401178 755.925499zM685.792697 755.925499c-23.715121 0-42.987047 19.253506-42.987047 42.88267 0 23.63121 19.271926 42.849924 42.987047 42.849924 23.682375 0 42.970674-19.218714 42.970674-42.849924C728.76337 775.180028 709.474049 755.925499 685.792697 755.925499zM834.132186 360.584452c-0.01842-0.067538-0.033769-0.137123-0.068562-0.206708l-0.342808-1.807159c-0.689708-3.048429-1.774413-5.753027-4.288676-9.730619-1.654686-2.394537-3.566222-4.39203-5.563716-5.891174-0.671289-0.550539-1.39579-1.049912-2.63399-1.824555-2.121314-1.257643-4.2897-2.204202-5.513574-2.463098-0.483001-0.257873-1.464351-0.775666-3.134387-1.171686l-429.345512-0.63752-8.816806 0.068562 0 1.446955c-10.954493 3.687996-18.874883 14.054087-18.874883 26.231431 0 12.157901 7.92039 22.51069 18.874883 26.195615l0 1.532913 393.918651 0-57.645908 185.747471L452.838064 578.074881l-8.819876 0.088004 0 1.428535c-10.952446 3.685949-18.874883 14.054087-18.874883 26.221198 0 12.159948 7.92346 22.527063 18.874883 26.214035l0 1.549286 280.042067 0 4.445242-0.103354c10.745738 0.896416 20.579711-4.753257 25.832342-13.468756l0.759293 0.171915L832.064085 376.068098c0.327458-0.722454 0.585331-1.428535 0.966001-2.564405l4.114714-12.625552L834.132186 360.584452z" fill="#a9b7b7"></path></g></g></svg>