<?xml version="1.0" standalone="no"?><!DOCTYPE svg PUBLIC "-//W3C//DTD SVG 1.1//EN" "http://www.w3.org/Graphics/SVG/1.1/DTD/svg11.dtd"><svg width="200" height="200" viewBox="0 0 200 200" version="1.1" xmlns="http://www.w3.org/2000/svg" xmlns:xlink="http://www.w3.org/1999/xlink"><defs><style type="text/css"><![CDATA[
@font-face { font-family: ifont; src: url("http://at.alicdn.com/t/font_1442373896_4754455.eot?#iefix") format("embedded-opentype"), url("http://at.alicdn.com/t/font_1442373896_4754455.woff") format("woff"), url("http://at.alicdn.com/t/font_1442373896_4754455.ttf") format("truetype"), url("http://at.alicdn.com/t/font_1442373896_4754455.svg#ifont") format("svg"); }

]]></style></defs><g class="transform-group"><g transform="scale(0.1953125, 0.1953125)"><path d="M451.162353 487.122824c-10.360471-3.132235-19.757176-8.685929-27.949176-16.986353-13.131294-13.010824-19.636706-28.912941-19.636706-47.453365 0-18.432 6.505412-34.334118 19.636706-47.465412 13.119247-13.010824 28.912941-19.636706 47.465412-19.636706s34.322071 6.625882 47.453365 19.636706c13.143341 13.119247 19.636706 28.900894 19.636706 47.465412 0 18.540424-6.493365 34.322071-19.636706 47.453365 2.421459 7.107765 4.577882 14.215529 6.505412 21.323294 2.6624-2.048 5.312753-4.445365 7.830588-6.987294 17.106824-17.106824 25.551812-37.707294 25.551812-61.801412s-8.444988-44.706635-25.551812-61.813459c-17.094776-16.986353-37.695247-25.527718-61.789365-25.527718s-44.694588 8.541365-61.801412 25.527718c-17.118871 17.106824-25.539765 37.719341-25.539765 61.813459s8.420894 44.682541 25.539765 61.789365c13.251765 13.263812 28.539482 21.335341 46.128188 24.347106C454.174118 501.446776 452.957365 494.230588 451.162353 487.122824zM697.476518 664.696471c-0.493929 0-0.843294-0.481882-0.963765-0.831247-7.107765-14.468518-16.287624-27.8528-27.358871-39.767341-12.866259-13.733647-31.322353-23.973647-50.465129-26.852894l-0.337318-0.361412-13.842071-0.602353-8.697976-14.456471c-1.264941-2.084141-2.939482-3.939388-4.903153-5.589835L590.908235 142.456471c0-25.768659-20.961882-46.742588-46.610071-46.742588L339.365647 95.713882c-25.660235 0-46.622118 20.961882-46.622118 46.742588l0 466.691012c0 25.792753 20.961882 46.754635 46.622118 46.754635l18.576565 0c0.252988 0.771012 0.542118 1.505882 0.795106 2.276894 1.807059 5.553694 3.132235 18.552471 7.107765 22.166588 4.216471 3.746635 7.589647 12.781929 10.601412 17.227294 7.481224 10.613459 17.106824 23.503812 21.805176 35.791812 13.263812 20.118588 19.395765 45.429459 35.189459 65.439624 18.299482 23.130353 37.333835 44.429553 64.680659 58.187294 10.119529 5.650071 17.829647 13.360188 23.371294 23.250824l9.396706 48.067765c35.526776-6.517459 178.043482-30.732047 193.222776-33.743812l-9.372612-41.333459-0.373459-0.481882c3.144282-10.348424 5.915106-21.082353 8.697976-31.695812 2.168471-8.420894 3.4816-16.974306 3.746635-25.527718 1.084235-22.660518 2.048-45.525835 3.132235-68.306824 0-4.096 0.349365-8.192 1.084235-12.167529C732.822588 701.933929 725.341365 666.142118 697.476518 664.696471zM413.936941 133.059765 469.835294 133.059765c5.059765 0 9.276235 4.228518 9.276235 9.396706 0 5.059765-4.216471 9.288282-9.276235 9.288282l-55.898353 0c-5.192282 0-9.396706-4.228518-9.396706-9.288282C404.540235 137.288282 408.744659 133.059765 413.936941 133.059765zM311.404424 189.078588 572.235294 189.078588l0 373.458824-6.421082 0c-5.288659-1.517929-10.770071-2.602165-16.624941-2.770824l-13.962541 2.770824-0.493929-1.204706-0.349365-0.252988-43.863341-166.249412c-6.131953-21.443765-16.624941-21.443765-27.937129-19.516235 0 0-23.130353 3.373176-18.805459 28.190118l29.647812 159.033224L311.404424 562.537412 311.404424 189.078588zM413.936941 609.171576c0-15.420235 12.396424-27.949176 27.937129-27.949176 15.420235 0 27.949176 12.528941 27.949176 27.949176 0.012047 15.528659-12.528941 28.069647-27.949176 28.069647C426.333365 637.241224 413.936941 624.700235 413.936941 609.171576zM470.281035 677.574776c-13.492706 2.180518-25.298824-0.963765-35.659294-9.396706-4.204424-3.180424-7.999247-7.493271-11.541082-12.275953l63.186824 0c-1.662494 6.095812-4.5056 11.745882-8.878682 16.865882C475.461271 675.297882 472.329035 677.345882 470.281035 677.574776zM512.060235 3.698447c-280.298918 0-508.349741 228.002635-508.349741 508.241318 0 280.298918 228.038776 508.337694 508.349741 508.337694 280.250729 0 508.229271-228.026729 508.229271-508.337694C1020.277459 231.701082 792.310965 3.698447 512.060235 3.698447zM512.060235 1006.640188c-272.769506 0-494.688376-221.906824-494.688376-494.688376 0-272.709271 221.906824-494.567906 494.688376-494.567906 272.721318 0 494.579953 221.858635 494.579953 494.567906C1006.640188 784.733365 784.781553 1006.640188 512.060235 1006.640188z" fill="#a9b7b7"></path></g></g></svg>