<?xml version="1.0" encoding="utf-8"?>
<!-- Generator: Adobe Illustrator 16.0.0, SVG Export Plug-In . SVG Version: 6.00 Build 0)  -->
<!DOCTYPE svg PUBLIC "-//W3C//DTD SVG 1.1//EN" "http://www.w3.org/Graphics/SVG/1.1/DTD/svg11.dtd">
<svg version="1.1" id="图层_1" xmlns="http://www.w3.org/2000/svg" xmlns:xlink="http://www.w3.org/1999/xlink" x="0px" y="0px"
	 width="566.93px" height="566.93px" viewBox="0 0 566.93 566.93" enable-background="new 0 0 566.93 566.93" xml:space="preserve">
<g>
	<g transform="scale(0.125, 0.125)">
		<path fill="#A9B6B5" d="M1009.879,1691.863c-317.535,0-575.84,258.324-575.84,575.848c0,317.531,258.305,575.859,575.84,575.859
			c317.496,0,575.844-258.328,575.844-575.859C1585.723,1950.188,1327.375,1691.863,1009.879,1691.863z M1009.879,2773.922
			c-279.141,0-506.195-227.094-506.195-506.211c0-118.234,40.727-227.129,108.898-313.375c-0.316,7.871,2,15.566,6.723,22.051
			c5.555,7.676,13.805,12.707,22.91,14.137l64.859,11.887l71.648,376.277l-41.742,126.984l-0.137,0.359
			c-1.348,2.281-2.313,4.398-3.113,6.82c-0.699,2.266-1.098,4.469-1.254,5.969c-0.238,0.875-0.723,2.516-0.723,4.672l-0.066,1
			l0.441,1.602c0.191,2.43,0.684,4.844,1.695,8.148c0.531,1.719,1.086,3.398,1.813,4.859c1.234,2.5,2.754,4.508,4.035,6.086
			c1.301,1.672,2.598,3.172,3.5,3.875l2.961,3c1.848,1.367,3.637,2.023,4.121,2.125c1.746,0.961,3.484,1.867,5.336,2.5
			c0.109,0,0.246,0.063,0.332,0.102v2.242h615.047l11.293-0.266v-1.797c14.059-4.719,24.191-18.008,24.191-33.578
			c0-19.516-15.914-35.406-35.484-35.406H822.215l24.809-86.93c4.34-7.141,5.926-15.742,4.32-24.844l0.02-0.563l-80.797-411.914
			l-2.359-11.648l-2.316,0.574c-4.238-6.613-10.629-11.645-18.195-14.27l-93.875-17.926l-10.344-1.703
			c92.246-96.828,222.402-157.262,366.406-157.262c279.098,0,506.18,227.082,506.18,506.211
			C1516.063,2546.828,1288.98,2773.922,1009.879,2773.922z M898.582,2582.5c-30.348,0-55.02,24.648-55.02,54.914
			c0,30.25,24.672,54.867,55.02,54.867c30.344,0,55.016-24.617,55.016-54.867C953.598,2607.148,928.926,2582.5,898.582,2582.5z
			 M1232.004,2582.5c-30.375,0-55.051,24.648-55.051,54.914c0,30.25,24.676,54.867,55.051,54.867c30.32,0,55.02-24.617,55.02-54.867
			C1287.023,2607.148,1262.313,2582.5,1232.004,2582.5z M1421.938,2076.285c-0.031-0.086-0.051-0.176-0.09-0.262l-0.441-2.316
			c-0.879-3.902-2.27-7.367-5.48-12.461c-2.121-3.066-4.57-5.621-7.133-7.539c-0.859-0.707-1.789-1.348-3.371-2.34
			c-2.723-1.609-5.492-2.824-7.063-3.152c-0.621-0.332-1.871-0.992-4.012-1.5l-549.754-0.816l-11.285,0.09v1.852
			c-14.031,4.719-24.168,17.992-24.168,33.586c0,15.566,10.137,28.824,24.168,33.539v1.969h504.391l-73.816,237.848H933.715
			l-11.293,0.094v1.844c-14.027,4.727-24.168,17.992-24.168,33.57c0,15.57,10.141,28.852,24.168,33.57v1.984H1281l5.68-0.141
			c13.766,1.164,26.359-6.078,33.082-17.25l0.973,0.227l98.555-312.57c0.418-0.918,0.75-1.824,1.238-3.281l5.262-16.164
			L1421.938,2076.285z"/>
	</g>
</g>
<g>
	<g transform="scale(0.125, 0.125)">
		<path fill="#A9B6B5" d="M4083.813,2517.906h-35.75V1874.57c0-39.508-31.969-71.477-71.477-71.477h-857.773
			c-39.492,0-71.461,31.969-71.461,71.477v643.32h-35.75c-19.758,0-35.742,15.992-35.742,35.742v107.227
			c0,39.516,31.969,71.484,71.492,71.484h1000.711c39.523,0,71.492-31.969,71.492-71.484v-107.227
			C4119.555,2533.883,4103.563,2517.906,4083.813,2517.906z M3118.813,1910.313c0-19.758,16-35.742,35.75-35.742h786.281
			c19.758,0,35.742,15.984,35.742,35.742v607.578h-857.773V1910.313z M4048.063,2625.117c0,19.773-15.984,35.742-35.734,35.742
			h-929.25c-19.75,0-35.727-15.969-35.727-35.742v-35.75h1000.711V2625.117z M3731.508,2164.953h-91.906v-187.637
			c0-17.277-13.703-31.27-30.633-31.27h-122.531c-16.938,0-30.641,13.992-30.641,31.27v93.82h-91.906
			c-16.93,0-30.625,13.992-30.625,31.266v343.996h428.875v-250.172C3762.141,2178.934,3748.438,2164.953,3731.508,2164.953z
			 M3455.797,2383.867h-61.273v-250.184h61.273V2383.867z M3578.328,2383.867h-61.258v-375.273h61.258V2383.867z M3700.875,2383.867
			h-61.273V2227.5h61.273V2383.867z"/>
	</g>
</g>
<g>
	<g transform="scale(0.1953125, 0.1953125)">
		<path fill="#A9B6B5" d="M1709.026,1969.75c-20.18-20.13-43.54-38.275-69.49-53.975c-72.24-43.645-158.96-60.815-242.707-48.25
			c-77.7,11.73-147.892,47.075-203.157,102.25c-55.135,55.215-90.457,125.405-102.182,203.055v0.03
			c-12.71,84.085,4.44,170.295,48.25,242.685c15.727,25.94,33.85,49.305,53.927,69.46c68.68,68.59,159.977,106.345,257.229,106.37
			l0,0c17.25,0,34.525-1.465,51.54-3.89h0.05c1.15,0,2.26-0.085,3.41-0.24c77.62-11.69,147.89-47.05,203.129-102.24
			c55.17-55.225,90.48-125.39,102.18-203.044v-0.02C1828.435,2167.725,1790.276,2051.025,1709.026,1969.75L1709.026,1969.75z
			 M1768.365,2257.639c-3.55,0.355-7.06,0.8-10.66,1.02c-3.77,0.25-7.55,0.445-11.32,0.55c-5.7,0.135-11.34-0.065-17.03-0.21
			c-11.01-0.295-21.98-1.23-32.82-2.655c-4.31-0.545-8.66-0.8-12.93-1.53c-13.14-2.24-26.04-5.57-38.74-9.435
			c-5.37-1.645-10.71-3.53-15.99-5.47c-10.04-3.64-19.86-7.73-29.5-12.375c-3.42-1.645-6.97-3.02-10.35-4.795
			c-12.66-6.68-24.83-14.365-36.52-22.765c-1.33-0.935-2.58-1.98-3.87-2.93c7.69-10.73,14.39-22.055,21.32-33.27
			c2.98-4.78,6.32-9.335,9.11-14.2c11.59-20.1,21.95-40.85,31.01-62.195c2.04-4.815,3.52-9.86,5.42-14.77
			c6.53-16.775,12.45-33.745,17.37-51.11c2.14-7.635,3.86-15.345,5.74-23.075c1.9-8.155,4.48-16.12,6.04-24.365
			c11.6,8.73,22.34,18.035,32.21,27.875C1744.826,2069.925,1777.656,2162.284,1768.365,2257.639L1768.365,2257.639z
			 M1602.306,1946.955c-2.13,13.975-4.8,27.835-8.05,41.545c-1.19,4.905-1.85,9.97-3.19,14.84
			c-5.73,21.095-12.75,41.775-21.01,61.94c-1.96,4.685-4.5,9.11-6.58,13.745c-6.8,15.22-14.04,30.235-22.26,44.74
			c-3.87,6.795-8.31,13.28-12.48,19.905c-5.07,8-10.49,15.75-16,23.48c-0.18-0.18-0.4-0.34-0.615-0.53
			c-8.755-8.785-16.885-18-24.485-27.545c-2.53-3.16-4.62-6.58-7.02-9.82c-4.79-6.53-9.63-13.035-13.895-19.855
			c-2.535-4.07-4.63-8.36-6.985-12.54c-3.51-6.28-7.15-12.54-10.213-19.03c-2.175-4.595-3.955-9.345-5.912-14.06
			c-2.665-6.3-5.328-12.595-7.505-19.055c-1.74-4.995-3.063-10.11-4.487-15.17c-1.82-6.4-3.65-12.8-5.073-19.325
			c-1.152-5.24-1.953-10.555-2.84-15.86c-1.063-6.535-2.133-13.085-2.8-19.7c-0.527-5.4-0.797-10.86-1.068-16.31
			c-0.307-6.66-0.575-13.35-0.485-20.06c0.085-5.485,0.4-11.015,0.755-16.515c0.223-3.78,0.665-7.575,1.017-11.38
			C1483.956,1904.375,1547.306,1917.285,1602.306,1946.955L1602.306,1946.955z M1225.877,2001.935
			c41.272-41.225,92.145-69.795,148.472-83.625c-0.135,2.02,0.05,4.015-0.04,6.055c-0.267,5.645-0.18,11.24-0.18,16.885
			c0.05,8.02,0.135,16.015,0.665,23.99c0.405,5.775,1.027,11.5,1.69,17.275c0.932,7.755,2,15.465,3.333,23.125
			c1.07,5.75,2.217,11.425,3.557,17.11c1.688,7.575,3.732,15.03,5.952,22.5c1.645,5.55,3.29,11.06,5.235,16.525
			c2.583,7.44,5.51,14.7,8.623,21.945c2.175,5.185,4.307,10.395,6.752,15.5c3.557,7.375,7.512,14.53,11.55,21.655
			c2.625,4.665,5.062,9.395,7.907,13.935c4.8,7.66,10.13,14.99,15.462,22.295c2.713,3.645,5.113,7.445,7.905,10.995
			c8.49,10.66,17.51,20.945,27.2,30.675c1.77,1.76,3.55,3.45,5.325,5.13c-0.885,1.02-1.775,2.18-2.665,3.185
			c-8.4,9.81-16.49,18.83-24.565,26.91c-8.132,8.115-17.285,16.33-27.055,24.675c-1.022,0.85-2.137,1.72-3.112,2.575
			c-1.685-1.77-3.373-3.53-5.152-5.25c-9.643-9.67-19.863-18.555-30.392-26.97c-2.263-1.83-4.657-3.445-6.973-5.2
			c-8.755-6.67-17.725-12.955-26.965-18.745c-2.23-1.36-4.447-2.645-6.622-3.955c-10.085-6.02-20.387-11.51-30.917-16.505
			c-1.47-0.69-2.978-1.42-4.495-2.105c-12.08-5.495-24.387-10.4-37.047-14.55c-0.137-0.05-0.26-0.11-0.445-0.165
			c-26.117-8.525-53.31-14.185-81.17-16.615c-2.705-0.235-5.463-0.195-8.213-0.395c-8.002-0.51-15.907-1.15-23.992-1.15
			c-3.02,0-6.045,0.195-9.022,0.265c-1.91,0.04-3.862,0.115-5.823,0.18c-2.755,0.105-5.595,0.09-8.392,0.26
			C1156.087,2094.04,1184.65,2043.185,1225.877,2001.935L1225.877,2001.935z M1134.365,2197.199
			c3.772-0.355,7.505-0.78,11.287-1.025c5.367-0.335,10.787-0.595,16.117-0.665c7.152-0.065,14.31,0.185,21.415,0.575
			c4.758,0.245,9.505,0.505,14.215,0.98c7.91,0.795,15.777,2,23.595,3.38c3.863,0.685,7.685,1.255,11.5,2.08
			c8.625,1.845,17.063,4.175,25.462,6.735c3.063,0.905,6.083,1.69,9.108,2.685c8.88,2.98,17.55,6.51,26.12,10.235
			c2.485,1.095,5.068,2.025,7.507,3.16c8.662,4.04,17.01,8.69,25.323,13.5c2.265,1.335,4.665,2.45,6.887,3.85
			c8.175,5.035,15.992,10.68,23.725,16.475c2.132,1.585,4.35,2.935,6.44,4.57c9.593,7.58,18.795,15.715,27.547,24.44
			c0.172,0.18,0.302,0.375,0.487,0.56c-7.735,5.525-15.505,10.99-23.552,16.08c-6.57,4.13-12.97,8.55-19.723,12.39
			c-14.48,8.24-29.497,15.49-44.695,22.275c-4.618,2.09-9.105,4.65-13.858,6.605c-20.082,8.26-40.695,15.28-61.755,20.96
			c-5.328,1.425-10.752,2.21-16.083,3.475c-13.37,3.15-26.83,5.75-40.472,7.855
			C1141.2,2323.179,1128.407,2259.944,1134.365,2197.199L1134.365,2197.199z M1450.899,2545.879
			c-85.115,0-165-33.045-225.022-93.045c-9.82-9.84-19.147-20.615-27.85-32.19c8.257-1.575,16.215-4.105,24.342-6.03
			c7.818-1.85,15.55-3.61,23.19-5.765c17.28-4.88,34.165-10.745,50.822-17.25c5.022-1.955,10.22-3.47,15.15-5.585
			c21.28-8.995,41.94-19.32,61.97-30.865c5.075-2.935,9.782-6.4,14.71-9.47c11.065-6.855,22.26-13.455,32.833-21.095
			c1.42,1.885,2.93,3.685,4.265,5.595c2.488,3.575,4.927,7.225,7.287,10.885c3.46,5.355,6.748,10.8,9.855,16.33
			c2.135,3.77,4.27,7.57,6.23,11.435c2.973,5.82,5.685,11.795,8.255,17.79c1.6,3.685,3.29,7.335,4.81,11.085
			c2.745,7.09,5.1,14.305,7.37,21.58c0.84,2.785,1.91,5.515,2.66,8.36c2.85,10,5.15,20.15,6.93,30.405
			c0.54,3.07,0.81,6.18,1.245,9.27c1.075,7.365,2.045,14.745,2.575,22.195c0.36,4.08,0.36,8.185,0.54,12.3
			c0.26,6.545,0.355,13.085,0.175,19.655c-0.085,4.395-0.355,8.775-0.62,13.17c-0.225,3.245-0.625,6.49-0.975,9.735
			C1471.426,2545.364,1461.116,2545.879,1450.899,2545.879L1450.899,2545.879L1450.899,2545.879z M1676.856,2452.834
			c-41.27,41.23-92.19,69.81-148.48,83.63c0.09-1.355,0-2.695,0.09-4.05c0.18-4.05,0.18-8.125,0.225-12.21
			c0.13-8.055,0.13-16.105-0.265-24.145c-0.23-4.39-0.54-8.775-0.895-13.145c-0.655-7.825-1.595-15.595-2.755-23.35
			c-0.62-4.195-1.19-8.37-2-12.555c-1.595-8.61-3.55-17.115-5.77-25.58c-0.8-3.05-1.42-6.135-2.31-9.15
			c-3.285-11.4-7.115-22.63-11.505-33.65c-0.895-2.29-2.005-4.47-2.975-6.74c-3.69-8.7-7.64-17.29-12-25.71
			c-1.86-3.6-3.905-7.11-5.905-10.645c-3.96-7-8.045-13.88-12.435-20.655c-2.36-3.6-4.76-7.175-7.295-10.715
			c-1.825-2.6-3.415-5.345-5.375-7.9c1.24-1.045,2.22-2.06,3.42-3.11c10.62-9.08,20.66-18.06,29.545-26.965
			c8.98-8.93,17.865-18.885,27.015-29.59c1.06-1.22,2.045-2.11,3.105-3.355c1.165,0.865,2.405,1.605,3.595,2.465
			c4.4,3.175,8.895,6.11,13.38,9.09c4.44,2.905,8.8,5.83,13.32,8.545c4.5,2.685,9.11,5.155,13.69,7.645c4.8,2.6,9.6,5.215,14.48,7.6
			c4.44,2.15,8.98,4.055,13.46,6.015c5.33,2.325,10.62,4.645,16.09,6.71c4.22,1.6,8.49,2.975,12.75,4.42
			c5.91,2,11.81,3.97,17.81,5.665c3.96,1.1,7.95,2.02,11.95,2.99c6.41,1.58,12.84,3.115,19.38,4.335c3.77,0.71,7.63,1.25,11.45,1.82
			c6.71,1.045,13.42,2.045,20.22,2.715c3.95,0.375,7.95,0.545,11.95,0.815c6.62,0.425,13.2,0.825,19.85,0.865
			c1.26,0.025,2.49,0.185,3.78,0.185c1.51,0,2.98-0.31,4.49-0.335c6.18-0.09,12.35,0.025,18.53-0.38
			C1746.646,2360.749,1718.086,2411.584,1676.856,2452.834L1676.856,2452.834z"/>
	</g>
</g>
<g>
	<g transform="scale(0.125, 0.125)">
		<path fill="#A9B6B5" d="M2812.688,1069.57c0-145.535-55.844-280.914-159.086-382.441
			C2552.078,585.582,2415,528.047,2271.164,528.047c-145.539,0-280.918,55.844-382.445,159.082
			c-101.547,101.527-159.082,238.602-159.082,382.441c0,72.766,13.543,143.84,42.313,211.527
			c27.074,64.313,65.996,121.848,116.77,172.609c101.527,101.543,238.602,159.082,382.445,159.082
			c69.383,0,135.375-13.547,197.992-37.238c-6.773-13.535-11.836-27.082-15.234-40.605
			c-55.844,21.992-118.453,35.531-182.758,35.531c-274.148,0-497.527-223.383-497.527-497.516
			c0-277.535,223.379-500.914,497.527-500.914s497.516,223.379,497.516,497.523c0,42.313-5.078,84.605-15.227,123.531
			c-1.695,0-5.086,0-8.461,0c-28.773,0-54.156,23.699-54.156,54.152c0,28.77,23.688,54.152,54.156,54.152
			c28.773,0,54.148-23.688,54.148-54.152c0-10.145-3.375-18.613-6.766-27.082C2805.914,1171.105,2812.688,1120.344,2812.688,1069.57
			z M2086.703,1103.414c-11.852,0-20.309,10.156-20.309,21.996v189.535c0,11.84,8.457,21.996,20.309,21.996
			s20.305-10.156,20.305-21.996v-187.84C2107.008,1113.57,2098.555,1103.414,2086.703,1103.414 M2210.234,1062.805
			c-11.844,0-20.301,10.156-20.301,21.996v230.145c0,11.84,8.457,21.996,20.301,21.996c11.848,0,20.305-10.156,20.305-21.996
			v-230.145C2232.238,1072.961,2222.082,1062.805,2210.234,1062.805 M2335.469,1020.492c-11.859,0-20.305,10.156-20.305,20.309
			v274.145c0,11.84,10.156,20.309,20.305,20.309c11.836,0,20.297-10.156,20.297-20.309v-272.449
			C2355.766,1030.648,2347.305,1020.492,2335.469,1020.492 M2459.008,937.578c-11.859,0-20.32,10.152-20.32,21.996v355.371
			c0,11.84,8.461,21.996,20.32,21.996c11.836,0,20.297-10.156,20.297-21.996V959.574
			C2479.305,947.73,2470.844,937.578,2459.008,937.578 M2489.469,841.121c-3.398-5.086-8.477-8.469-15.234-10.152l0,0h-1.703
			c-1.688,0-3.375,0-3.375,0h-104.93l38.922,38.922l-130.297,86.301l-65.992-42.313c-8.469-5.066-18.625-1.691-23.699,5.086
			l-65.996,65.996l-52.461-40.621c-10.152-5.074-20.305-3.387-27.078,5.082c-5.066,8.457-1.688,20.301,6.773,25.387l64.309,49.074
			c6.762,3.375,13.535,1.688,18.613-1.695l0,0l0,0l1.695-1.695l67.688-67.691l64.305,38.922c6.758,3.391,16.914,5.082,22,1.699h1.68
			L2475.922,866.5C2489.469,861.422,2492.844,849.582,2489.469,841.121"/>
	</g>
</g>
<line fill="none" stroke="#A9B6B5" stroke-width="3" stroke-miterlimit="10" x1="113.386" y1="113.385" x2="453.544" y2="453.543"/>
<line fill="none" stroke="#A9B6B5" stroke-width="2" stroke-miterlimit="10" x1="453.544" y1="113.386" x2="113.386" y2="453.544"/>
</svg>
