<?xml version="1.0" standalone="no"?><!DOCTYPE svg PUBLIC "-//W3C//DTD SVG 1.1//EN" "http://www.w3.org/Graphics/SVG/1.1/DTD/svg11.dtd"><svg width="200" height="200" viewBox="0 0 200 200" version="1.1" xmlns="http://www.w3.org/2000/svg" xmlns:xlink="http://www.w3.org/1999/xlink"><defs><style type="text/css"><![CDATA[
@font-face { font-family: ifont; src: url("http://at.alicdn.com/t/font_1442373896_4754455.eot?#iefix") format("embedded-opentype"), url("http://at.alicdn.com/t/font_1442373896_4754455.woff") format("woff"), url("http://at.alicdn.com/t/font_1442373896_4754455.ttf") format("truetype"), url("http://at.alicdn.com/t/font_1442373896_4754455.svg#ifont") format("svg"); }

]]></style></defs><g class="transform-group"><g transform="scale(0.1953125, 0.1953125)"><path d="M815.21864 0 208.822092 0c-114.137214 0-206.959603 92.829522-206.959603 206.952471l0 584.813761c0 114.123968 92.82239 206.946358 206.959603 206.946358l245.068511 0 116.216733 0 0-117.333418L570.107336 557.444794l174.554347 0-232.669845-269.222934L279.309766 557.444794l174.580837 0 0 323.935397L208.822092 881.380191c-49.519267 0-89.61294-40.108956-89.61294-89.61294L119.209152 206.952471c0-49.48972 40.093673-89.597657 89.61294-89.597657l606.396549 0c49.478512 0 89.571166 40.107937 89.571166 89.597657l0 584.813761c0 49.503984-40.093673 89.61294-89.571166 89.61294l-54.173479 0 0 117.333418 54.173479 0c114.084232 0 206.918848-92.823409 206.918848-206.946358L1022.137489 206.952471C1022.13647 92.830541 929.301853 0 815.21864 0z" fill="#ecf0f1"></path></g></g></svg>