<?xml version="1.0" standalone="no"?><!DOCTYPE svg PUBLIC "-//W3C//DTD SVG 1.1//EN" "http://www.w3.org/Graphics/SVG/1.1/DTD/svg11.dtd"><svg width="200.1953125" height="200" viewBox="0 0 200.1953125 200" version="1.1" xmlns="http://www.w3.org/2000/svg" xmlns:xlink="http://www.w3.org/1999/xlink"><defs><style type="text/css"><![CDATA[
@font-face { font-family: ifont; src: url("http://at.alicdn.com/t/font_1442373896_4754455.eot?#iefix") format("embedded-opentype"), url("http://at.alicdn.com/t/font_1442373896_4754455.woff") format("woff"), url("http://at.alicdn.com/t/font_1442373896_4754455.ttf") format("truetype"), url("http://at.alicdn.com/t/font_1442373896_4754455.svg#ifont") format("svg"); }

]]></style></defs><g class="transform-group"><g transform="scale(0.1953125, 0.1953125)"><path d="M704.814545 168.308364 160.302545 168.308364c-13.195636 0-23.901091 9.541818-23.901091 21.317818 0 11.776 10.705455 21.317818 23.901091 21.317818l544.535273 0c13.195636 0 23.901091-9.541818 23.901091-21.317818C728.738909 177.850182 718.010182 168.308364 704.814545 168.308364M728.692364 342.411636c0-11.776-10.705455-21.317818-23.901091-21.317818L160.279273 321.093818c-13.172364 0-23.877818 9.541818-23.877818 21.317818 0 11.776 10.705455 21.317818 23.877818 21.317818l544.558545 0C717.986909 363.729455 728.692364 354.187636 728.692364 342.411636M160.256 473.902545c-13.195636 0-23.901091 9.541818-23.901091 21.317818 0 11.776 10.705455 21.317818 23.901091 21.317818l349.463273 0c13.172364 0 23.877818-9.541818 23.877818-21.317818 0-11.776-10.705455-21.317818-23.877818-21.317818L160.256 473.902545zM434.036364 626.711273 160.279273 626.711273c-13.195636 0-23.901091 9.565091-23.901091 21.317818 0 11.776 10.705455 21.317818 23.901091 21.317818L434.036364 669.346909c13.195636 0 23.901091-9.541818 23.901091-21.317818C457.937455 636.276364 447.232 626.711273 434.036364 626.711273M968.285091 844.381091l-61.160727 0-119.365818-149.061818c49.128727-15.429818 84.596364-56.832 84.596364-105.867636 0-62.138182-56.599273-112.686545-126.231273-112.686545s-126.254545 50.548364-126.254545 112.686545c0 49.035636 35.514182 90.437818 84.619636 105.867636l-119.389091 149.061818-61.137455 0c-30.743273 0-55.738182 22.295273-55.738182 49.733818l0 80.151273c0 27.438545 24.994909 49.757091 55.738182 49.757091l444.276364 0C998.981818 1024 1024 1001.704727 1024 974.242909l0-80.151273C1024.023273 866.676364 999.028364 844.381091 968.285091 844.381091M667.671273 589.451636c0-38.609455 35.165091-70.050909 78.452364-70.050909s78.452364 31.418182 78.452364 70.050909c0 38.376727-34.769455 69.585455-77.730909 69.957818l-1.466182 0C702.487273 659.037091 667.671273 627.851636 667.671273 589.451636M738.792727 725.876364l14.056727-0.791273 95.534545 119.296-204.520727 0L738.792727 725.876364zM976.244364 974.266182c0 3.863273-3.630545 7.098182-7.959273 7.098182L523.985455 981.364364c-4.328727 0-7.959273-3.234909-7.959273-7.098182L516.026182 894.138182c0-3.863273 3.630545-7.098182 7.959273-7.098182l73.472 0 297.402182 0 0.628364 0 72.820364 0c4.328727 0 7.982545 3.234909 7.982545 7.098182l0 80.151273L976.244364 974.289455zM47.778909 884.852364 47.778909 49.757091c0-3.863273 3.630545-7.098182 7.959273-7.098182l760.552727 0c4.352 0 7.982545 3.234909 7.982545 7.098182l0 401.105455c17.92 8.075636 34.048 18.827636 47.778909 31.697455L872.052364 49.757091C872.052364 22.318545 847.034182 0 816.290909 0L55.738182 0C24.994909 0 0 22.318545 0 49.757091l0 835.095273c0 27.438545 24.994909 49.757091 55.738182 49.757091l364.683636 0 0-40.494545c0-0.744727 0.232727-1.419636 0.256-2.164364L55.738182 891.950545C51.432727 891.950545 47.778909 888.715636 47.778909 884.852364" fill="#ecf0f1"></path></g></g></svg>