<?xml version="1.0" standalone="no"?><!DOCTYPE svg PUBLIC "-//W3C//DTD SVG 1.1//EN" "http://www.w3.org/Graphics/SVG/1.1/DTD/svg11.dtd"><svg width="128" height="128" viewBox="0 0 128 128" version="1.1" xmlns="http://www.w3.org/2000/svg" xmlns:xlink="http://www.w3.org/1999/xlink"><defs><style type="text/css"><![CDATA[
@font-face { font-family: ifont; src: url("http://at.alicdn.com/t/font_1442373896_4754455.eot?#iefix") format("embedded-opentype"), url("http://at.alicdn.com/t/font_1442373896_4754455.woff") format("woff"), url("http://at.alicdn.com/t/font_1442373896_4754455.ttf") format("truetype"), url("http://at.alicdn.com/t/font_1442373896_4754455.svg#ifont") format("svg"); }

]]></style></defs><g class="transform-group"><g transform="scale(0.125, 0.125)"><path d="M923.207564 422.207634c-21.490778-2.423989-40.814055 13.00501-43.234432 34.45605-20.804403 184.140097-87.635702 318.178396-198.633458 398.386792-72.744966 52.569139-142.050829 63.876272-158.065053 65.859536-22.072391-2.557652-134.540436-20.750215-228.902618-131.823834C190.602865 666.947463 146.638707 479.093713 163.451295 230.477669c184.038947-16.519975 301.065971-82.643223 349.643294-116.08416 44.82032 30.359472 147.415395 88.249827 303.544147 110.683469l-321.798123 348.00683-177.673718-176.651379c-15.309786-15.215861-40.059042-15.147224-55.28574 0.15895-15.219474 15.309786-15.150836 40.062654 0.162563 55.28574l206.418401 205.229888c7.329768 7.29003 17.242475 11.368546 27.563395 11.368546 0.270938 0 0.545488-0.007225 0.820038-0.010838 10.613533-0.227588 20.677965-4.746828 27.881295-12.542609L927.398067 220.449361c2.622677-2.839427 4.728766-5.964242 6.358005-9.258844 0.025288-0.061413 0.061413-0.1156 0.0867-0.1734 0.487688-1.000663 0.913963-2.026614 1.311338-3.056177 0.065025-0.166175 0.140888-0.325125 0.205913-0.494913 0.39015-1.062076 0.726113-2.142214 1.018726-3.229577 0.046963-0.151725 0.097538-0.296225 0.137275-0.44795 0.993438-3.814803 1.401651-7.745206 1.224638-11.646709-0.021675-0.426275-0.079475-0.841713-0.111988-1.264376-0.065025-0.841713-0.122825-1.683426-0.249263-2.521527-0.075863-0.552713-0.198688-1.087363-0.299838-1.636464-0.126438-0.704438-0.249263-1.412489-0.41905-2.109702-0.133663-0.541875-0.30345-1.065688-0.458788-1.600339-0.205913-0.693601-0.393763-1.390814-0.639413-2.073577-0.162563-0.469625-0.364863-0.921188-0.541875-1.383589-0.292613-0.733338-0.578-1.463064-0.913963-2.178339-0.177013-0.386538-0.382925-0.751401-0.574388-1.130713-0.386538-0.758626-0.776688-1.517251-1.210188-2.257814-0.195075-0.328738-0.411825-0.639413-0.62135-0.960926-0.473238-0.747788-0.950088-1.491964-1.473901-2.210852-0.24565-0.335963-0.523813-0.653863-0.780301-0.978988-0.5202-0.6647-1.033176-1.329401-1.596726-1.961589-0.429888-0.47685-0.899513-0.917576-1.347463-1.376364-0.422663-0.426275-0.816426-0.874226-1.260763-1.286051-0.025288-0.021675-0.054188-0.04335-0.079475-0.065025-0.935638-0.859776-1.914626-1.679814-2.933352-2.449277-0.4624-0.3468-0.946476-0.646638-1.419714-0.971763-0.585225-0.400988-1.148776-0.816426-1.755676-1.188513-0.585225-0.36125-1.199351-0.6647-1.799026-0.986213-0.523813-0.285388-1.033176-0.588838-1.575051-0.848938-0.643025-0.310675-1.307726-0.570775-1.968814-0.841713-0.523813-0.21675-1.025951-0.455175-1.560601-0.653863-0.718888-0.2601-1.452226-0.466013-2.181952-0.686376-0.4913-0.148113-0.978988-0.325125-1.477514-0.451563-0.935638-0.242038-1.882114-0.415438-2.821365-0.585225-0.325125-0.061413-0.628575-0.1445-0.946476-0.195075-1.282438-0.198688-2.575714-0.33235-3.865378-0.400988-0.025288-0.003613-0.050575-0.007225-0.075863-0.007225-233.974571-12.538997-361.32974-117.930149-362.478515-118.901912-14.796811-12.672659-36.663289-12.524547-51.279475 0.354025-1.199351 1.058463-122.792577 105.886065-362.048628 118.547887-0.422663 0.021675-0.827263 0.093925-1.246313 0.13005-0.65025 0.054188-1.293276 0.1156-1.932689 0.2023-0.693601 0.090313-1.372751 0.213138-2.055514 0.343188-0.56355 0.104763-1.130713 0.21675-1.687039 0.3468-0.744176 0.177013-1.481126 0.382925-2.214464 0.599675-0.458788 0.140888-0.921188 0.281775-1.376364 0.4335-0.794751 0.270938-1.567826 0.567163-2.337289 0.888676-0.3757 0.155338-0.751401 0.310675-1.127101 0.480463-0.798363 0.357638-1.578664 0.747788-2.340902 1.156001-0.335963 0.177013-0.668313 0.357638-0.997051 0.545488-0.758626 0.4335-1.495576 0.895901-2.218077 1.372751-0.328738 0.220363-0.653863 0.440725-0.975376 0.668313-0.67915 0.480463-1.340238 0.986213-1.990489 1.510026-0.3468 0.27455-0.682763 0.556325-1.022338 0.848938-0.581613 0.509363-1.148776 1.033176-1.701489 1.571439-0.368475 0.36125-0.726113 0.718888-1.076526 1.090976-0.484075 0.509363-0.950088 1.036788-1.408876 1.571439-0.372088 0.440725-0.736951 0.885063-1.094588 1.340238-0.397375 0.512975-0.780301 1.036788-1.152388 1.567826-0.357638 0.509363-0.704438 1.025951-1.036788 1.553376-0.33235 0.527425-0.646638 1.062076-0.957313 1.607564-0.314288 0.552713-0.617738 1.112651-0.903126 1.687039-0.285388 0.56355-0.552713 1.137938-0.809201 1.719551-0.249263 0.570775-0.498525 1.141551-0.718888 1.730389-0.24565 0.628575-0.466013 1.264376-0.675538 1.907401-0.184238 0.559938-0.36125 1.119876-0.5202 1.690651-0.195075 0.697213-0.36125 1.408876-0.516588 2.120539-0.119213 0.545488-0.234813 1.090976-0.33235 1.647301-0.13005 0.740563-0.223975 1.488351-0.307063 2.236139-0.039738 0.357638-0.119213 0.708051-0.148113 1.069301-25.139406 287.985098 24.731193 507.014746 148.231821 650.998264 111.759994 130.30297 246.715868 153.394087 278.549242 157.118578 2.470952 0.4913 5.017766 0.755013 7.618768 0.755013 0.30345 0 0.6069-0.025288 0.913963-0.032513 0.299838 0.007225 0.6069 0.032513 0.910351 0.032513 2.611839 0 5.162266-0.267325 7.636831-0.765851 23.737755-2.81414 105.026289-16.48385 191.079715-77.267819 90.785804-64.125534 205.182925-195.277443 234.624822-455.912284C960.083991 443.987413 944.654992 424.628011 923.207564 422.207634z" fill="#a9b7b7"></path></g></g></svg>