<?xml version="1.0" standalone="no"?><!DOCTYPE svg PUBLIC "-//W3C//DTD SVG 1.1//EN" "http://www.w3.org/Graphics/SVG/1.1/DTD/svg11.dtd"><svg width="200" height="200" viewBox="0 0 200 200" version="1.1" xmlns="http://www.w3.org/2000/svg" xmlns:xlink="http://www.w3.org/1999/xlink"><defs><style type="text/css"><![CDATA[
@font-face { font-family: ifont; src: url("http://at.alicdn.com/t/font_1442373896_4754455.eot?#iefix") format("embedded-opentype"), url("http://at.alicdn.com/t/font_1442373896_4754455.woff") format("woff"), url("http://at.alicdn.com/t/font_1442373896_4754455.ttf") format("truetype"), url("http://at.alicdn.com/t/font_1442373896_4754455.svg#ifont") format("svg"); }

]]></style></defs><g class="transform-group"><g transform="scale(0.1953125, 0.1953125)"><path d="M112.877837 357.433692c25.252127 0 45.726437-20.475334 45.726437-45.727461l0-137.184429 137.183406 0c25.255197 0 45.727461-20.472264 45.727461-45.727461 0-25.25315-20.472264-45.728484-45.727461-45.728484L112.877837 83.065857c-25.255197 0-45.728484 20.475334-45.728484 45.728484l0 182.91189C67.149353 336.958358 87.62264 357.433692 112.877837 357.433692zM913.110447 83.065857 730.200604 83.065857c-25.254174 0-45.728484 20.475334-45.728484 45.728484 0 25.255197 20.47431 45.727461 45.728484 45.727461l137.184429 0 0 137.184429c0 25.252127 20.472264 45.727461 45.725414 45.727461 25.255197 0 45.728484-20.475334 45.728484-45.727461L958.838931 128.794341C958.838931 103.541191 938.365644 83.065857 913.110447 83.065857zM918.827659 666.094564c-25.255197 0-51.443649 20.472264-51.443649 45.727461l0 137.180336L724.484416 849.00236c-25.255197 0-45.728484 20.478404-45.728484 45.727461 0 25.25622 20.473287 45.728484 45.728484 45.728484l182.910866 0c1.920746 0 3.808746-0.132006 5.66707-0.36225 1.919722 0.230244 3.844561 0.36225 5.765307 0.36225 25.254174 0 40.011272-20.470217 40.011272-45.725414L958.838931 711.822025C958.838931 686.566828 944.081833 666.094564 918.827659 666.094564zM295.78768 849.00236 158.605298 849.00236 158.605298 711.822025c0-25.255197-20.47431-45.727461-45.726437-45.727461-25.255197 0-45.728484 20.472264-45.728484 45.727461l0 182.907797c0 25.25622 20.473287 45.728484 45.728484 45.728484l182.909843 0c25.255197 0 45.727461-20.472264 45.727461-45.728484C341.515141 869.480764 321.042877 849.00236 295.78768 849.00236zM112.877837 540.342512l800.233634 0c25.25315 0 45.725414-20.472264 45.725414-45.727461s-20.472264-45.725414-45.725414-45.725414L112.877837 448.889637c-25.255197 0-45.728484 20.470217-45.728484 45.725414S87.62264 540.342512 112.877837 540.342512z" fill="#a9b7b7"></path></g></g></svg>