<?xml version="1.0" standalone="no"?><!DOCTYPE svg PUBLIC "-//W3C//DTD SVG 1.1//EN" "http://www.w3.org/Graphics/SVG/1.1/DTD/svg11.dtd"><svg width="200" height="200" viewBox="0 0 200 200" version="1.1" xmlns="http://www.w3.org/2000/svg" xmlns:xlink="http://www.w3.org/1999/xlink"><defs><style type="text/css"><![CDATA[
@font-face { font-family: ifont; src: url("http://at.alicdn.com/t/font_1442373896_4754455.eot?#iefix") format("embedded-opentype"), url("http://at.alicdn.com/t/font_1442373896_4754455.woff") format("woff"), url("http://at.alicdn.com/t/font_1442373896_4754455.ttf") format("truetype"), url("http://at.alicdn.com/t/font_1442373896_4754455.svg#ifont") format("svg"); }

]]></style></defs><g class="transform-group"><g transform="scale(0.1953125, 0.1953125)"><path d="M828.058352 192.539154c-24.677029-24.616654-53.249785-46.811142-84.990696-66.016553-88.358397-53.387931-194.429201-74.388221-296.863175-59.009975-95.033423 14.340613-180.892907 57.57223-248.489444 125.056204C130.281205 260.109086 87.075171 345.95936 72.732511 440.939571l0 0.028653c-15.544021 102.856599 5.430686 208.29807 59.017138 296.841685 19.235087 31.731702 41.400922 60.310597 65.963341 84.955904 84.003206 83.893712 195.675588 130.081661 314.6247 130.108267l0 0c21.093411 0 42.22673-1.797949 63.038732-4.752234l0.058328 0c1.407046 0 2.761903-0.115634 4.180206-0.300852 94.931093-14.295588 180.89086-57.543577 248.443395-125.056204 67.48602-67.543326 110.682845-153.370063 124.978433-248.347205l0-0.024559C974.120986 434.69024 927.440827 291.946188 828.058352 192.539154L828.058352 192.539154zM900.651694 544.66905c-4.347005 0.435928-8.633634 0.977257-13.035898 1.246387-4.620227 0.302899-9.241478 0.543376-13.857613 0.676405-6.955412 0.166799-13.859659-0.079818-20.817118-0.265036-13.467733-0.356111-26.89351-1.49812-40.147372-3.235694-5.279237-0.676405-10.601452-0.977257-15.818267-1.873674-16.078187-2.746554-31.850405-6.821359-47.38317-11.55108-6.576789-2.007727-13.098319-4.318352-19.561521-6.681166-12.276604-4.451382-24.296359-9.452279-36.080753-15.132652-4.182252-2.009773-8.53335-3.697205-12.664438-5.866614-15.481599-8.17724-30.371728-17.574261-44.670385-27.844162-1.629103-1.146103-3.149736-2.419096-4.727675-3.591805 9.401114-13.120832 17.60496-26.975375 26.085098-40.692794 3.640923-5.849218 7.714705-11.413957 11.137665-17.367553 14.182001-24.580838 26.848485-49.955762 37.928844-76.072583 2.501984-5.889127 4.297886-12.05864 6.635117-18.061354 7.983835-20.512173 15.214517-41.274032 21.24486-62.513776 2.610454-9.343809 4.722558-18.773576 7.013741-28.230971 2.330068-9.967002 5.485945-19.72218 7.391341-29.80277 14.182001 10.677177 27.327392 22.063505 39.393195 34.097586C871.855858 315.066769 912.00937 428.037726 900.651694 544.66905L900.651694 544.66905zM697.5336 164.664294c-2.606361 17.089214-5.866614 34.040281-9.838066 50.804083-1.464351 6.004761-2.278903 12.20088-3.911076 18.148335-7.010671 25.811876-15.59314 51.104935-25.707498 75.771731-2.388397 5.733585-5.485945 11.139711-8.04114 16.814967-8.31334 18.608823-17.166985 36.980239-27.220968 54.717206-4.731768 8.315386-10.162454 16.248056-15.270798 24.347524-6.194072 9.779737-12.82919 19.261693-19.561521 28.718065-0.223081-0.217964-0.490164-0.411369-0.763386-0.651846-10.705829-10.734482-20.643156-22.010293-29.9358-33.69031-3.098571-3.859911-5.653767-8.04114-8.591679-12.007475-5.864568-7.987928-11.785417-15.945157-17.002232-24.289196-3.098571-4.972245-5.661953-10.215666-8.540514-15.32401-4.28663-7.692193-8.743128-15.34857-12.490475-23.281239-2.661619-5.624091-4.839215-11.437493-7.231705-17.200754-3.260254-7.714705-6.514367-15.403828-9.179057-23.309892-2.127454-6.112208-3.748371-12.361539-5.489014-18.553565-2.229784-7.825222-4.462638-15.653515-6.203282-23.635303-1.411139-6.412037-2.388397-12.909008-3.476171-19.401886-1.297552-7.987928-2.606361-16.000416-3.420913-24.095791-0.645706-6.603395-0.977257-13.285584-1.304715-19.942191-0.378623-8.15268-0.705058-16.32992-0.596588-24.538883 0.104377-6.708795 0.487094-13.474896 0.924045-20.207227 0.271176-4.620227 0.814552-9.268084 1.246387-13.912871C552.768519 112.582101 630.256334 128.366599 697.5336 164.664294L697.5336 164.664294zM237.106186 231.904721c50.485835-50.421366 112.705921-85.36318 181.607174-102.287641-0.164752 2.470261 0.058328 4.916986-0.051165 7.413853-0.327458 6.904247-0.222057 13.750165-0.222057 20.652366 0.062422 9.806343 0.164752 19.586081 0.814552 29.339212 0.49221 7.064906 1.255597 14.07353 2.068102 21.137413 1.139963 9.481955 2.443655 18.911722 4.072759 28.278043 1.308809 7.037277 2.715855 13.9712 4.351098 20.926612 2.065032 9.262968 4.569062 18.390859 7.28287 27.522844 2.009773 6.79066 4.019547 13.528108 6.405897 20.207227 3.157923 9.103332 6.739495 17.981537 10.54517 26.844392 2.659573 6.354731 5.26798 12.715603 8.260128 18.962887 4.349051 9.023514 9.185196 17.767666 14.126742 26.488281 3.207042 5.704932 6.192026 11.491729 9.670244 17.036002 5.871731 9.372461 12.393261 18.34174 18.911722 27.27418 3.318582 4.458545 6.252401 9.107425 9.673313 13.452383 10.382465 13.039991 21.417799 25.620517 33.261545 37.518498 2.170432 2.14792 4.347005 4.212952 6.52153 6.27389-1.090844 1.25048-2.174526 2.664689-3.26537 3.89061-10.269901 12.001335-20.165272 23.038716-30.045293 32.92283-9.948583 9.917884-21.142529 19.966751-33.093722 30.182416-1.246387 1.034563-2.610454 2.096754-3.805676 3.151783-2.060939-2.174526-4.126994-4.320399-6.30152-6.434549-11.796674-11.818163-24.296359-22.686698-37.171598-32.983205-2.771113-2.232854-5.699816-4.212952-8.529257-6.360871-10.707876-8.148587-21.680788-15.84078-32.983205-22.929222-2.724041-1.657756-5.439896-3.229554-8.099469-4.836145-12.334933-7.360641-24.938995-14.07353-37.81935-20.186761-1.795902-0.843204-3.638877-1.733481-5.493108-2.577708-14.778588-6.714935-29.833469-12.717649-45.320185-17.799388-0.162706-0.051165-0.318248-0.130983-0.541329-0.189312-31.94762-10.434653-65.204048-17.356296-99.282191-20.322861-3.311419-0.297782-6.681166-0.246617-10.044774-0.487094-9.7869-0.62524-19.459191-1.411139-29.348422-1.411139-3.692089 0-7.393387 0.24457-11.033287 0.325411-2.335185 0.053212-4.722558 0.140193-7.122211 0.220011-3.367701 0.130983-6.841825 0.106424-10.262738 0.320295C151.746076 344.57278 186.680726 282.357809 237.106186 231.904721L237.106186 231.904721zM125.172861 470.737224c4.614088-0.431835 9.18315-0.945535 13.804401-1.24434 6.567579-0.414439 13.196557-0.734734 19.720134-0.814552 8.745175-0.081864 17.500583 0.217964 26.192545 0.705058 5.815449 0.297782 11.624758 0.6191 17.386996 1.193175 9.673313 0.977257 19.294438 2.445702 28.858258 4.133134 4.725628 0.839111 9.397021 1.544169 14.06432 2.548032 10.550287 2.254344 20.87033 5.114484 31.144324 8.235568 3.748371 1.110287 7.440459 2.065032 11.141758 3.284813 10.863419 3.64297 21.464871 7.963369 31.94762 12.522198 3.042289 1.337461 6.198166 2.475378 9.18315 3.864004 10.596336 4.945639 20.805862 10.622942 30.970362 16.517185 2.77316 1.63115 5.711072 2.991124 8.426927 4.695952 9.999748 6.169513 19.561521 13.07376 29.020964 20.160155 2.606361 1.929955 5.321192 3.587712 7.872295 5.595438 11.736299 9.266038 22.991644 19.212574 33.695427 29.888727 0.213871 0.215918 0.373507 0.458441 0.596588 0.676405-9.459442 6.766101-18.962887 13.447267-28.807093 19.673062-8.035 5.052063-15.865339 10.458189-24.124444 15.155165-17.712407 10.078543-36.080753 18.940374-54.66604 27.249621-5.64865 2.555196-11.135618 5.682419-16.949021 8.070816-24.563442 10.113335-49.777707 18.689664-75.538417 25.645077-6.514367 1.738597-13.147438 2.695389-19.668968 4.242627-16.35448 3.858888-32.816406 7.040347-49.502437 9.617032C133.535319 624.838951 117.887944 547.493375 125.172861 470.737224L125.172861 470.737224zM512.342808 897.228735c-104.110149 0-201.818495-40.423665-275.236622-113.806999-12.007475-12.034081-23.419386-25.215288-34.062793-39.368636 10.102079-1.927909 19.830651-5.021364 29.773094-7.385201 9.56382-2.257413 19.021216-4.409426 28.367071-7.042393 21.135366-5.972015 41.785685-13.145391 62.161758-21.106714 6.142907-2.38635 12.501732-4.242627 18.529005-6.824429 26.031886-11.001565 51.29834-23.635303 75.801407-37.758975 6.203282-3.583618 11.961426-7.825222 17.9887-11.573593 13.534248-8.395204 27.229155-16.463973 40.160675-25.809829 1.740644 2.307555 3.583618 4.511757 5.216815 6.848988 3.042289 4.369517 6.02932 8.827039 8.91402 13.310144 4.231371 6.554276 8.250918 13.207813 12.054547 19.966751 2.608407 4.616134 5.218862 9.266038 7.616468 13.990642 3.638877 7.120165 6.951319 14.431687 10.105149 21.760606 1.949398 4.513804 4.0175 8.967232 5.871731 13.563924 3.362584 8.664334 6.243191 17.492396 9.016351 26.383904 1.032516 3.413749 2.337231 6.756891 3.260254 10.234085 3.476171 12.230556 6.300496 24.645306 8.478092 37.192064 0.651846 3.750417 0.979304 7.55814 1.520633 11.33107 1.308809 9.020444 2.496867 18.039865 3.151783 27.14729 0.435928 4.992711 0.435928 10.016121 0.659009 15.047718 0.316202 8.010441 0.427742 15.998369 0.206708 24.044626-0.102331 5.377474-0.429789 10.730389-0.757247 16.109909-0.26913 3.966335-0.763386 7.93267-1.191128 11.903098C537.448602 896.603495 524.840446 897.228735 512.342808 897.228735L512.342808 897.228735 512.342808 897.228735zM788.716322 783.421736c-50.481741 50.427506-112.75504 85.391832-181.603081 102.289688 0.102331-1.655709 0-3.289929 0.102331-4.947685 0.220011-4.965082 0.220011-9.942443 0.271176-14.937201 0.160659-9.859555 0.160659-19.701714-0.318248-29.532617-0.278339-5.372358-0.659009-10.732435-1.092891-16.087397-0.810459-9.561773-1.954515-19.067264-3.369747-28.553313-0.754177-5.132904-1.460258-10.240225-2.445702-15.34857-1.951445-10.543124-4.344958-20.944008-7.059789-31.29782-0.975211-3.723811-1.738597-7.500834-2.828418-11.186783-4.0175-13.941524-8.696056-27.685549-14.068414-41.164538-1.090844-2.799766-2.450818-5.464455-3.640923-8.235568-4.50971-10.645454-9.347902-21.155832-14.674211-31.458479-2.28095-4.400217-4.780887-8.694009-7.226588-13.016455-4.839215-8.555863-9.834996-16.977673-15.21247-25.266453-2.8847-4.402263-5.818519-8.773827-8.918114-13.096273-2.227738-3.180436-4.184299-6.544043-6.572696-9.671267 1.515516-1.27504 2.715855-2.521426 4.184299-3.799536 12.984732-11.113105 25.264407-22.092158 36.139082-32.987299 10.974959-10.921747 21.843494-23.093974 33.038464-36.1882 1.297552-1.490957 2.496867-2.577708 3.794419-4.102435 1.422396 1.057075 2.942005 1.956561 4.40738 3.013637 5.379521 3.886517 10.872628 7.472182 16.35448 11.117199 5.434779 3.559059 10.766205 7.139607 16.305361 10.456143 5.491061 3.282766 11.139711 6.30152 16.737196 9.343809 5.866614 3.184529 11.736299 6.389524 17.708314 9.296737 5.437849 2.635013 10.982122 4.965082 16.468067 7.360641 6.519484 2.850931 12.984732 5.675256 19.671015 8.205892 5.163603 1.951445 10.382465 3.638877 15.600303 5.406127 7.226588 2.445702 14.449084 4.856611 21.783119 6.92369 4.843308 1.357927 9.728572 2.477424 14.623046 3.665483 7.830339 1.932002 15.702634 3.810792 23.690562 5.303796 4.620227 0.867764 9.349949 1.520633 14.017248 2.225691 8.211009 1.280156 16.409738 2.501984 24.732288 3.316535 4.830005 0.460488 9.728572 0.674359 14.613836 1.001817 8.099469 0.51677 16.136515 1.003863 24.285103 1.055029 1.530866 0.028653 3.042289 0.225127 4.620227 0.225127 1.852184 0 3.640923-0.38067 5.489014-0.407276 7.554046-0.11154 15.108093 0.026606 22.660092-0.465604C874.085642 670.787446 839.146898 732.971717 788.716322 783.421736L788.716322 783.421736z" fill="#a9b7b7"></path></g></g></svg>