<?xml version="1.0" standalone="no"?><!DOCTYPE svg PUBLIC "-//W3C//DTD SVG 1.1//EN" "http://www.w3.org/Graphics/SVG/1.1/DTD/svg11.dtd"><svg width="128" height="128" viewBox="0 0 128 128" version="1.1" xmlns="http://www.w3.org/2000/svg" xmlns:xlink="http://www.w3.org/1999/xlink"><defs><style type="text/css"><![CDATA[
@font-face { font-family: ifont; src: url("http://at.alicdn.com/t/font_1442373896_4754455.eot?#iefix") format("embedded-opentype"), url("http://at.alicdn.com/t/font_1442373896_4754455.woff") format("woff"), url("http://at.alicdn.com/t/font_1442373896_4754455.ttf") format("truetype"), url("http://at.alicdn.com/t/font_1442373896_4754455.svg#ifont") format("svg"); }

]]></style></defs><g class="transform-group"><g transform="scale(0.125, 0.125)"><path d="M1016.123077 512c0-135.483077-51.987692-261.513846-148.086154-356.036923-94.523077-94.523077-222.129231-148.086154-356.036923-148.086154-135.483077 0-261.513846 51.987692-356.036923 148.086154-94.523077 94.523077-148.086154 222.129231-148.086154 356.036923C7.876923 579.741538 20.48 645.907692 47.261538 708.923077c25.206154 59.864615 61.44 113.427692 108.701538 160.689231 94.523077 94.523077 222.129231 148.086154 356.036923 148.086154 64.590769 0 126.030769-12.603077 184.32-34.658462-6.301538-12.603077-11.027692-25.206154-14.178462-37.809231-51.987692 20.48-110.276923 33.083077-170.141538 33.083077-255.212308 0-463.163077-207.950769-463.163077-463.163077C48.836923 256.787692 256.787692 48.836923 512 48.836923c255.212308 0 463.163077 207.950769 463.163077 463.163077 0 39.384615-4.726154 78.769231-14.178462 115.003077-1.575385 0-4.726154 0-7.876923 0-26.781538 0-50.412308 22.055385-50.412308 50.412308 0 26.781538 22.055385 50.412308 50.412308 50.412308 26.781538 0 50.412308-22.055385 50.412308-50.412308 0-9.452308-3.150769-17.329231-6.301538-25.206154C1009.821538 606.523077 1016.123077 559.261538 1016.123077 512zM340.283077 543.507692c-11.027692 0-18.904615 9.452308-18.904615 20.48L321.378462 740.430769c0 11.027692 7.876923 20.48 18.904615 20.48 11.027692 0 18.904615-9.452308 18.904615-20.48L359.187692 565.563077C359.187692 552.96 351.310769 543.507692 340.283077 543.507692M455.286154 505.698462c-11.027692 0-18.904615 9.452308-18.904615 20.48L436.381538 740.430769c0 11.027692 7.876923 20.48 18.904615 20.48 11.027692 0 18.904615-9.452308 18.904615-20.48L474.190769 526.178462C475.766154 515.150769 466.313846 505.698462 455.286154 505.698462M571.864615 466.313846c-11.027692 0-18.904615 9.452308-18.904615 18.904615l0 255.212308c0 11.027692 9.452308 18.904615 18.904615 18.904615 11.027692 0 18.904615-9.452308 18.904615-18.904615L590.769231 486.793846C590.769231 475.766154 582.892308 466.313846 571.864615 466.313846M686.867692 389.12c-11.027692 0-18.904615 9.452308-18.904615 20.48l0 330.830769c0 11.027692 7.876923 20.48 18.904615 20.48 11.027692 0 18.904615-9.452308 18.904615-20.48l0-330.830769C705.772308 398.572308 697.895385 389.12 686.867692 389.12M715.224615 299.323077c-3.150769-4.726154-7.876923-7.876923-14.178462-9.452308l0 0-1.575385 0c-1.575385 0-3.150769 0-3.150769 0l-97.673846 0 36.233846 36.233846-121.304615 80.344615-61.44-39.384615c-7.876923-4.726154-17.329231-1.575385-22.055385 4.726154l-61.44 61.44-48.836923-37.809231c-9.452308-4.726154-18.904615-3.150769-25.206154 4.726154-4.726154 7.876923-1.575385 18.904615 6.301538 23.630769l59.864615 45.686154c6.301538 3.150769 12.603077 1.575385 17.329231-1.575385 0 0 0 0 0 0l0 0c0 0 1.575385-1.575385 1.575385-1.575385l63.015385-63.015385 59.864615 36.233846c6.301538 3.150769 15.753846 4.726154 20.48 1.575385 0 0 1.575385 0 1.575385 0l178.018462-118.153846C715.224615 318.227692 718.375385 307.2 715.224615 299.323077" fill="#a9b7b7"></path></g></g></svg>