<?xml version="1.0" encoding="utf-8"?>
<!-- Generator: Adobe Illustrator 16.0.0, SVG Export Plug-In . SVG Version: 6.00 Build 0)  -->
<!DOCTYPE svg PUBLIC "-//W3C//DTD SVG 1.1//EN" "http://www.w3.org/Graphics/SVG/1.1/DTD/svg11.dtd">
<svg version="1.1" id="图层_1" xmlns="http://www.w3.org/2000/svg" xmlns:xlink="http://www.w3.org/1999/xlink" x="0px" y="0px"
	 width="566.93px" height="566.93px" viewBox="0 0 566.93 566.93" enable-background="new 0 0 566.93 566.93" xml:space="preserve">
<g>
	<g transform="scale(0.1953125, 0.1953125)">
		<path fill="#A9B6B5" d="M2540.609,2672.133H376.837c-112.632,0-204.222-76.83-204.222-171.265v-770.603
			c-0.512-5.065-12.352-190.359,181.2-363.519c214.642-192.025,586.686-289.339,1105.722-289.339
			c519.079,0,890.778,97.315,1104.902,289.389c193.084,173.155,180.625,358.539,180.015,366.339l0.37,767.733
			C2744.823,2595.303,2653.173,2672.133,2540.609,2672.133 M1459.536,1163.032c-482.786,0-839.36,90.682-1031.23,262.304
			c-163.637,146.37-153.787,300.639-153.687,302.184l0.105,773.348c0,47.215,45.797,85.63,102.112,85.63h2163.752
			c56.315,0,102.125-38.415,102.125-85.63l-0.26-770.603c0.555-9.075,9.045-161.43-154.64-306.864
			C2296.049,1253.077,1940.485,1163.032,1459.536,1163.032 M919.085,1191.722c-27.822,0-50.597-18.707-51.052-42.135
			c-0.557-33.005-7.562-807.805,611.904-826.093c139.69-4.232,258.449,34.045,351.569,113.595
			c255.079,217.974,228.789,672.893,227.51,692.118c-1.47,23.64-25.105,42.002-53.7,40.417c-28.135-1.242-49.745-21.41-48.24-45
			c0.235-4.36,25.055-436.761-198.575-627.681c-73.15-62.462-163.065-91.195-274.934-87.9
			c-520.564,15.412-513.579,731.933-513.414,739.171c0.455,23.675-22.06,43.117-50.24,43.497h-0.828V1191.722z M1644.516,1763.635
			h-371.834c-303.632,0-507.599-286.489-507.599-554.086h51.052c0,246.877,183.452,511.266,456.546,511.266h371.844
			c273.104,0,456.489-264.399,456.489-511.266h51.045C2152.06,1477.146,1948.14,1763.635,1644.516,1763.635 M1488.526,1634.011
			h-59.847c-53.917,0-97.72-36.745-97.72-81.945c0-45.22,43.812-81.95,97.72-81.95h59.847c53.91,0,97.71,36.735,97.71,81.95
			C1586.236,1597.266,1542.436,1634.011,1488.526,1634.011 M1428.679,1512.916c-25.737,0-46.665,17.57-46.665,39.135
			c0,21.585,20.927,39.135,46.665,39.135h59.847c25.72,0,46.665-17.55,46.665-39.135c0-21.565-20.945-39.135-46.665-39.135H1428.679
			z"/>
	</g>
</g>
<g>
	<g transform="scale(0.1953125, 0.1953125)">
		<path fill="#A9B6B5" d="M2478.749,1783.26h-791.078c-28.185,0-51.035,22.83-51.035,50.995v535.359
			c0,28.16,22.885,50.19,51.075,50.19h363.739v66.02h63.53v-66.02h363.734c28.185,0,51.075-22.03,51.075-50.19v-535.359
			C2529.789,1806.09,2506.929,1783.26,2478.749,1783.26L2478.749,1783.26L2478.749,1783.26z M2476.219,2366.239h-786.018v-137.025
			h786.018V2366.239L2476.219,2366.239z M1690.201,2175.655v-338.829h786.018v338.829H1690.201L1690.201,2175.655z M2050.2,2265.334
			h66.025v64.78H2050.2V2265.334L2050.2,2265.334z M1956.77,2484.574c-17.61,0-33.055,14.07-33.055,31.665
			s14.285,31.865,31.905,31.865h255.184c17.615,0,31.895-14.265,31.895-31.865c0-17.595-15.44-31.665-33.05-31.665H1956.77
			L1956.77,2484.574z"/>
	</g>
</g>
<g>
	<g transform="scale(0.1953125, 0.1953125)">
		<path fill="#A9B6B5" d="M1278.304,2223.179c-3.655-48.95-35.24-92.19-80.49-112.35l-40.645-191.104
			C1142.29,1849.84,1072.095,1793,1000.645,1793H680.386c-71.45,0-141.667,56.84-156.525,126.725l-40.665,191.104
			c-45.25,20.18-76.815,63.4-80.472,112.35l-9.205,122.59c-3.948,52.67,26.012,100.16,73.03,119.375
			c10.81,42.33,48.99,73.215,94.197,73.215c42.005,0,77.76-26.22,91.362-64.05h376.812c13.605,37.83,49.36,64.05,91.345,64.05
			c45.205,0,83.43-30.885,94.235-73.215c47.015-19.215,76.955-66.685,72.995-119.375L1278.304,2223.179z M1183.924,2417.634
			c-11.9,2.775-20.51,13.085-21.125,25.295c-1.13,22.83-19.81,40.73-42.535,40.73c-22.15,0-40.36-16.81-42.335-39.11
			c-1.235-14.115-13.065-24.92-27.245-24.92H630.328c-14.18,0-25.995,10.805-27.25,24.92c-1.973,22.3-20.157,39.11-42.33,39.11
			c-22.707,0-41.385-17.88-42.517-40.73c-0.595-12.21-9.227-22.52-21.105-25.295c-31.357-7.275-51.515-35.14-49.07-67.775
			l9.205-122.575c2.385-31.85,26.407-60.765,58.442-70.275c10.44-3.125,18.042-12.125,19.357-22.98c0.165-1.56,0.287-3.14,0.41-4.68
			c0.063-0.8,0.063-1.625,0.205-2.37l41.675-195.869c9.617-45.23,56.797-83.41,103.035-83.41h320.259
			c46.215,0,93.4,38.18,103.035,83.41l41.655,195.854c0.16,0.82,0.16,1.625,0.225,2.425c0.105,1.52,0.225,3.04,0.41,4.58
			c1.275,10.85,8.895,19.91,19.38,23.04c32.015,9.51,56.035,38.425,58.42,70.275l9.185,122.575
			C1235.419,2382.474,1215.244,2410.359,1183.924,2417.634z M629.833,2136.64h421.341c10.15,0,18.885-3.755,24.25-10.23
			c5.795-6.68,8.14-15.82,6.615-25.75c-0.125-0.655-0.245-1.31-0.39-1.97l-33.105-143.85c-4.15-22.68-26.59-41.63-49.69-41.63
			H682.193c-23.097,0-45.577,18.95-49.727,41.63l-33.085,143.85c-0.165,0.66-0.287,1.315-0.39,1.97
			c-1.54,9.93,0.802,19.07,6.268,25.36C610.971,2132.88,619.683,2136.64,629.833,2136.64z M685.583,1967.91h309.862l26.22,114.03
			H659.343L685.583,1967.91z M596.893,2230.329c-34.132,0-61.812,27.68-61.812,61.81c0,34.15,27.68,61.81,61.812,61.81
			c34.132,0,61.792-27.66,61.792-61.81C658.686,2258.009,631.026,2230.329,596.893,2230.329z M1084.135,2230.329
			c-34.13,0-61.81,27.68-61.81,61.81c0,34.15,27.68,61.81,61.81,61.81c34.155,0,61.81-27.66,61.81-61.81
			C1145.945,2258.009,1118.29,2230.329,1084.135,2230.329z"/>
	</g>
</g>
</svg>
