<?xml version="1.0" standalone="no"?><!DOCTYPE svg PUBLIC "-//W3C//DTD SVG 1.1//EN" "http://www.w3.org/Graphics/SVG/1.1/DTD/svg11.dtd"><svg width="200" height="200" viewBox="0 0 200 200" version="1.1" xmlns="http://www.w3.org/2000/svg" xmlns:xlink="http://www.w3.org/1999/xlink"><defs><style type="text/css"><![CDATA[
@font-face { font-family: ifont; src: url(http://at.alicdn.com/t/font_1442373896_4754455.eot?#iefix) format(embedded-opentype), url(http://at.alicdn.com/t/font_1442373896_4754455.woff) format(woff), url(http://at.alicdn.com/t/font_1442373896_4754455.ttf) format(truetype), url(http://at.alicdn.com/t/font_1442373896_4754455.svg#ifont) format(svg); }

]]></style></defs><g class="transform-group"><g transform="scale(0.1953125, 0.1953125)"><path d="M674.922667 907.648l-139.648 0-93.098667 0 0-93.098667L442.176 209.450667 442.176 116.352l93.098667 0 139.648 0C867.712 116.352 1024 293.504 1024 512S867.712 907.648 674.922667 907.648zM674.922667 209.450667l-139.648 0 0 605.077333 139.648 0c141.376 0 256-135.466667 256-302.549333C930.922667 344.896 816.298667 209.450667 674.922667 209.450667zM46.549333 907.648 0 907.648l0-93.098667 46.549333 0c102.826667 0 186.197333-83.349333 186.197333-186.197333l0-512 93.098667 0 0 512C325.824 782.592 200.789333 907.648 46.549333 907.648z" fill="#11cd6e"></path></g></g></svg>