<?xml version="1.0" standalone="no"?><!DOCTYPE svg PUBLIC "-//W3C//DTD SVG 1.1//EN" "http://www.w3.org/Graphics/SVG/1.1/DTD/svg11.dtd"><svg width="200" height="200" viewBox="0 0 200 200" version="1.1" xmlns="http://www.w3.org/2000/svg" xmlns:xlink="http://www.w3.org/1999/xlink"><defs><style type="text/css"><![CDATA[
@font-face { font-family: ifont; src: url("http://at.alicdn.com/t/font_1442373896_4754455.eot?#iefix") format("embedded-opentype"), url("http://at.alicdn.com/t/font_1442373896_4754455.woff") format("woff"), url("http://at.alicdn.com/t/font_1442373896_4754455.ttf") format("truetype"), url("http://at.alicdn.com/t/font_1442373896_4754455.svg#ifont") format("svg"); }

]]></style></defs><g class="transform-group"><g transform="scale(0.1953125, 0.1953125)"><path d="M17.943552 851.035136M767.536128 189.046784c21.303296 47.348736 35.03104 89.020416 41.192448 124.535808l-80.027648 0c-6.150144-45.459456-18.466816-87.131136-38.829056-124.535808L767.536128 189.046784zM385.394688 362.354688 521.772032 362.354688c-3.789824-53.508096-0.474112-131.64032-0.474112-193.201152l100.383744 0c2.372608 64.401408 3.309568 144.429056 3.309568 193.201152l233.924608 0 0 108.435456L627.842048 470.790144c6.152192 86.656 14.72 89.962496 23.666688 139.21792 20.406272 112.206848 55.887872 169.447424 106.551296 171.882496 27.937792 1.352704 41.669632-14.194688 41.669632-47.342592l68.190208 0c1.898496 79.55456-34.095104 115.531776-109.85984 115.531776-100.862976 0-167.962624-78.517248-201.24672-240.070656-11.696128-56.764416-20.361216-60.138496-26.517504-139.21792L385.394688 470.791168 385.394688 362.354688zM144.371712 411.129856c71.02464-43.098112 145.364992-125.964288 166.683648-235.824128l97.543168 0c-17.988608 71.030784-38.83008 124.064768-62.038016 159.584256l0 518.503424-91.38176 0L255.178752 426.756096c-26.991616 12.781568-80.50176 28.880896-110.80704 37.871616L144.371712 411.129856zM65.765376 917.793792c0 21.317632 17.994752 39.313408 39.299072 39.313408l813.523968 0c21.30944 0 39.298048-17.994752 39.298048-39.313408L957.886464 104.280064c0-21.30432-17.988608-39.77216-39.298048-39.77216L105.064448 64.507904c-21.30432 0-39.299072 18.46784-39.299072 39.77216L65.765376 917.793792zM1005.243392 851.035136" fill="#a9b7b7"></path></g></g></svg>