<?xml version="1.0" standalone="no"?><!DOCTYPE svg PUBLIC "-//W3C//DTD SVG 1.1//EN" "http://www.w3.org/Graphics/SVG/1.1/DTD/svg11.dtd"><svg width="200" height="200" viewBox="0 0 200 200" version="1.1" xmlns="http://www.w3.org/2000/svg" xmlns:xlink="http://www.w3.org/1999/xlink"><defs><style type="text/css"><![CDATA[
@font-face { font-family: ifont; src: url("http://at.alicdn.com/t/font_1442373896_4754455.eot?#iefix") format("embedded-opentype"), url("http://at.alicdn.com/t/font_1442373896_4754455.woff") format("woff"), url("http://at.alicdn.com/t/font_1442373896_4754455.ttf") format("truetype"), url("http://at.alicdn.com/t/font_1442373896_4754455.svg#ifont") format("svg"); }

]]></style></defs><g class="transform-group"><g transform="scale(0.1953125, 0.1953125)"><path d="M884.277209 524.497215c0-208.69489-169.788969-378.488976-378.492046-378.488976-208.689773 0-378.470556 169.794086-378.470556 378.488976 0 208.686703 169.780782 378.471579 378.470556 378.471579C714.48824 902.969817 884.277209 733.183918 884.277209 524.497215zM840.231998 524.497215c0 62.696885-17.358152 121.409848-47.501082 171.613611-259.805347-21.340028-418.449977-142.535994-504.119141-236.778829 13.149092-27.814797 29.427605-53.141817 48.823257-75.930916 22.84436 20.366817 79.239423 32.767836 168.350131 36.873538 76.927664 0.008187 272.176689 10.07698 330.646093 53.78653C838.931313 490.514656 840.231998 507.357037 840.231998 524.497215zM830.07929 442.624698c-92.996388-45.134062-295.966629-46.810317-323.493863-46.810317-0.080845 0-0.15862 0-0.234348 0-111.469998-5.144407-143.59312-22.783982-152.393976-30.448913 109.293321-110.854961 273.646227-122.272536 331.854676-122.61843C756.439667 288.031532 808.992031 359.133234 830.07929 442.624698zM332.249691 238.69762c50.622316-30.855185 110.039347-48.646217 173.535473-48.646217 49.051466 0 95.669392 10.616288 137.67915 29.668093-77.837426 5.750233-208.992687 30.486777-304.999786 126.510251C325.810739 326.612026 326.555742 278.2984 332.249691 238.69762zM305.332377 256.954279c-3.464058 35.56262-3.495782 83.195715 16.213018 107.403184-19.765084 22.669366-36.576765 47.673006-50.419692 74.966915-28.435973-33.886364-46.733566-62.599666-56.431904-79.315151C237.541229 319.730985 268.49261 284.629899 305.332377 256.954279zM223.827245 704.150305c-31.652379-49.503789-50.632549-107.852437-52.334389-170.437776 15.123144-0.769563 37.828328 0.770587 63.042779 11.689787C224.469912 593.514342 220.890215 646.482188 223.827245 704.150305zM171.705713 509.6821c1.932095-44.103543 12.43786-86.015059 29.900395-124.104342 12.304824 19.623861 31.392447 47.119371 58.233009 78.047214-7.848112 18.525801-14.454893 38.002299-19.809088 58.421307C213.273382 511.316399 188.912409 509.219544 171.705713 509.6821zM251.106827 740.983932c-6.607805-67.614107-4.592819-128.849641 5.984582-183.468159 36.360837 23.537172 74.703913 69.036571 101.545498 155.329982 1.889114 8.165352 20.945013 85.504404 75.618792 138.352518C361.59952 835.303519 297.709403 795.725253 251.106827 740.983932zM382.145424 706.037372c-30.456077-98.213454-76.359701-148.187986-119.614883-173.059612 4.283765-17.080823 9.469106-33.461671 15.555-49.131287 88.975625 94.852755 247.103461 211.247138 499.375889 235.466888-60.76172 84.484119-159.896193 139.612268-271.675245 139.612268-7.267869 0-14.474337-0.259932-21.627591-0.718395C407.615714 815.173097 382.642775 708.085106 382.145424 706.037372z" fill="#ecf0f1"></path></g></g></svg>