<?xml version="1.0" standalone="no"?><!DOCTYPE svg PUBLIC "-//W3C//DTD SVG 1.1//EN" "http://www.w3.org/Graphics/SVG/1.1/DTD/svg11.dtd"><svg width="200" height="200" viewBox="0 0 200 200" version="1.1" xmlns="http://www.w3.org/2000/svg" xmlns:xlink="http://www.w3.org/1999/xlink"><defs><style type="text/css"><![CDATA[
@font-face { font-family: ifont; src: url("http://at.alicdn.com/t/font_1442373896_4754455.eot?#iefix") format("embedded-opentype"), url("http://at.alicdn.com/t/font_1442373896_4754455.woff") format("woff"), url("http://at.alicdn.com/t/font_1442373896_4754455.ttf") format("truetype"), url("http://at.alicdn.com/t/font_1442373896_4754455.svg#ifont") format("svg"); }

]]></style></defs><g class="transform-group"><g transform="scale(0.1953125, 0.1953125)"><path d="M896.54926 156.367327c0-35.398208-28.693506-64.091714-64.091714-64.091714L191.542454 92.275613c-35.398208 0-64.091714 28.693506-64.091714 64.091714l-4.056386 0c1.331321 2.300392 2.686179 4.585435 4.056386 6.860245l0 313.597301 0 384.54926c0 35.394115 28.693506 64.091714 64.091714 64.091714l640.915092 0c35.398208 0 64.091714-28.696576 64.091714-64.091714L896.54926 476.824873 896.54926 163.227572c1.370207-2.27481 2.725064-4.559852 4.056386-6.860245L896.54926 156.367327zM832.457546 476.824873l0 352.503403c0 17.699104-14.346753 32.045857-32.045857 32.045857L223.588311 861.374132c-17.699104 0-32.045857-14.346753-32.045857-32.045857L191.542454 476.824873 191.542454 245.997694c44.810578 45.737694 99.333356 81.920778 160.229285 105.21839l0-69.505004c-60.96142-27.986401-113.349581-71.438029-152.127769-125.34273l624.713085 0c-38.778188 53.903677-91.166349 97.356328-152.127769 125.34273l0 69.505004c60.895929-23.297612 115.417683-59.480696 160.229285-105.21839L832.458569 476.824873zM512 252.504898c-53.096289 0-96.137571 43.044352-96.137571 96.137571 0 53.096289 43.040259 96.137571 96.137571 96.137571s96.137571-43.040259 96.137571-96.137571C608.137571 295.548226 565.096289 252.504898 512 252.504898z" fill="#a9b7b7"></path></g></g></svg>