<?xml version="1.0" standalone="no"?><!DOCTYPE svg PUBLIC "-//W3C//DTD SVG 1.1//EN" "http://www.w3.org/Graphics/SVG/1.1/DTD/svg11.dtd"><svg width="200" height="200" viewBox="0 0 200 200" version="1.1" xmlns="http://www.w3.org/2000/svg" xmlns:xlink="http://www.w3.org/1999/xlink"><defs><style type="text/css"><![CDATA[
@font-face { font-family: ifont; src: url(http://at.alicdn.com/t/font_1442373896_4754455.eot?#iefix) format(embedded-opentype), url(http://at.alicdn.com/t/font_1442373896_4754455.woff) format(woff), url(http://at.alicdn.com/t/font_1442373896_4754455.ttf) format(truetype), url(http://at.alicdn.com/t/font_1442373896_4754455.svg#ifont) format(svg); }

]]></style></defs><g class="transform-group"><g transform="scale(0.1953125, 0.1953125)"><path d="M512.301176 115.215059c-273.844706 0-496.64 179.456-496.64 400.037647 0 121.042824 66.364235 233.622588 182.362353 309.925647-1.144471 11.52-8.282353 36.050824-12.815059 51.561412-14.637176 50.206118-25.208471 86.482824 2.319059 99.147294 3.915294 1.807059 8.237176 2.740706 12.845176 2.740706l0.015059 0c20.028235 0 43.956706-17.392941 84.555294-48.143059 17.754353-13.462588 46.908235-35.523765 57.825882-39.047529 54.241882 15.841882 111.269647 23.868235 169.532235 23.868235C786.160941 915.290353 1008.941176 735.834353 1008.941176 515.252706 1008.941176 294.671059 786.160941 115.215059 512.301176 115.215059zM512.301176 871.755294c-55.070118 0-108.905412-7.710118-159.984941-22.904471-2.846118-0.843294-5.888-1.28-9.020235-1.28-20.043294 0-44.001882 17.408-84.645647 48.203294-11.791059 8.929882-28.611765 21.654588-41.773176 30.238118 2.831059-12.016941 7.062588-26.593882 10.119529-37.089882 14.351059-49.197176 23.823059-81.679059 0.918588-96.256C120.696471 724.464941 59.196235 623.36 59.196235 515.252706c0-196.562824 203.264-356.487529 453.104941-356.487529 167.107765 0 313.283765 71.589647 391.830588 177.799529-81.377882 38.520471-457.050353 215.416471-486.144 212.163765-32.662588-3.614118-118.829176-79.811765-118.829176-79.811765s-31.759059-15.420235-30.840471 13.598118c0 0 90.699294 212.269176 106.134588 214.091294 15.420235 1.792 14.516706 12.679529 80.715294-29.936941 57.976471-37.330824 395.971765-232.372706 479.412706-280.470588 19.817412 40.041412 30.855529 83.546353 30.855529 129.054118C965.406118 711.830588 762.142118 871.755294 512.301176 871.755294z" fill="#11cd6e"></path></g></g></svg>