<?xml version="1.0" standalone="no"?><!DOCTYPE svg PUBLIC "-//W3C//DTD SVG 1.1//EN" "http://www.w3.org/Graphics/SVG/1.1/DTD/svg11.dtd"><svg width="200" height="200" viewBox="0 0 200 200" version="1.1" xmlns="http://www.w3.org/2000/svg" xmlns:xlink="http://www.w3.org/1999/xlink"><defs><style type="text/css"><![CDATA[
@font-face { font-family: ifont; src: url(http://at.alicdn.com/t/font_1442373896_4754455.eot?#iefix) format(embedded-opentype), url(http://at.alicdn.com/t/font_1442373896_4754455.woff) format(woff), url(http://at.alicdn.com/t/font_1442373896_4754455.ttf) format(truetype), url(http://at.alicdn.com/t/font_1442373896_4754455.svg#ifont) format(svg); }

]]></style></defs><g class="transform-group"><g transform="scale(0.1953125, 0.1953125)"><path d="M210.708468 62.388932 621.825826 62.388932c9.397021 0 18.791995 3.776 24.411993 9.397021l251.559363 249.656013c7.493671 7.552 9.366322 16.949021 9.366322 24.411993l0 0 0 523.81407c0 24.410969-9.366322 48.825009-28.129664 65.685002l0 0 0 0c-16.889669 16.861016-39.427988 26.25599-65.714677 26.25599L210.708468 961.609021c-26.257014 0-48.795333-11.239995-65.685002-28.101012l0 0c-16.889669-13.173021-28.189016-37.585013-28.189016-63.841004L116.83445 154.418952c0-26.343995 11.299347-48.823985 28.189016-65.773006C160.039461 73.629951 184.451454 62.388932 210.708468 62.388932L210.708468 62.388932 210.708468 62.388932 210.708468 62.388932zM648.112516 516.740978 648.112516 516.740978 648.112516 516.740978c35.653011 35.651988 58.19133 84.476997 58.19133 136.992047 0 54.445006-22.538319 103.240339-58.19133 137.076982-35.681664 35.654035-84.47802 58.222029-137.019677 58.222029-52.571333 0-103.270015-22.569018-137.049353-58.222029l0 0c-35.681664-35.651988-58.221006-84.476997-58.221006-137.076982 0-54.445006 22.539342-103.182011 58.221006-136.992047l1.843998-1.932002C450.998159 439.729 573.060169 441.571974 648.112516 516.740978L648.112516 516.740978 648.112516 516.740978 648.112516 516.740978zM274.549471 428.487981 274.549471 428.487981c-11.239995 0-20.665669-9.395998-20.665669-20.637016 0-11.328 9.425673-20.637016 20.665669-20.637016l75.052347 0c11.299347 0 20.665669 9.309016 20.665669 20.637016 0 11.239995-9.366322 20.637016-20.665669 20.637016L274.549471 428.487981 274.549471 428.487981 274.549471 428.487981 274.549471 428.487981zM274.549471 344.010985 274.549471 344.010985c-11.239995 0-20.665669-9.395998-20.665669-20.635993 0-11.328 9.425673-20.637016 20.665669-20.637016L516.711813 302.737976c11.239995 0 20.637016 9.307993 20.637016 20.637016 0 11.239995-9.397021 20.635993-20.637016 20.635993L274.549471 344.010985 274.549471 344.010985 274.549471 344.010985 274.549471 344.010985zM274.549471 261.377986 274.549471 261.377986c-11.239995 0-20.665669-9.397021-20.665669-20.637016 0-11.239995 9.425673-20.637016 20.665669-20.637016L516.711813 220.103954c11.239995 0 20.637016 9.395998 20.637016 20.637016 0 11.239995-9.397021 20.637016-20.637016 20.637016L274.549471 261.377986 274.549471 261.377986 274.549471 261.377986 274.549471 261.377986zM531.728832 501.726006 531.728832 501.726006l0 140.767024 122.003682 69.461001c7.523347-18.793018 11.298324-37.585013 11.298324-58.221006 0-41.274032-16.918321-78.859046-43.205011-106.959034l-1.87265-1.930979C595.569836 522.361999 565.536822 507.346003 531.728832 501.726006L531.728832 501.726006 531.728832 501.726006 531.728832 501.726006zM631.222847 747.604996 631.222847 747.604996l-129.526005-75.080999c-7.493671-3.774977-13.143345-9.395998-13.143345-18.790972L488.553497 501.726006c-33.809013 3.687996-63.842027 20.635993-86.351694 43.117007l-1.87265 1.930979c-28.189016 28.101012-45.078685 65.685002-45.078685 108.890013 0 43.117007 16.889669 80.700997 45.078685 108.890013l0 0c28.15934 28.071336 65.714677 45.049009 108.860337 45.049009 41.273009 0 80.731696-16.978696 108.890013-45.049009C623.6995 758.846014 627.476523 753.226017 631.222847 747.604996L631.222847 747.604996 631.222847 747.604996 631.222847 747.604996zM835.829851 368.422977 835.829851 368.422977 678.144506 368.422977c-22.538319 0-41.331337-9.395998-56.31868-22.567995l0-1.843998c-13.112646-15.015995-22.538319-33.809013-22.538319-54.445006L599.287507 131.850957 210.708468 131.850957c-7.523347 0-13.143345 1.843998-16.889669 7.552-5.619998 3.687996-7.493671 9.395998-7.493671 15.015995l0 715.249077c0 5.619998 1.873674 13.08297 7.493671 16.861016l0 0c3.746324 3.745301 9.366322 7.550976 16.889669 7.550976l602.611717 0c5.649674 0 13.171997-3.805676 16.889669-7.550976l0 0c3.776-3.777023 7.523347-9.398044 7.523347-16.861016l0-501.246075L835.829851 368.421954 835.829851 368.422977 835.829851 368.422977zM800.17684 327.062987 800.17684 327.062987 640.617821 167.503968l0 122.06201c0 9.395998 3.747347 18.791995 9.337669 26.25599l1.902326 1.932002c7.493671 7.463995 16.889669 11.239995 26.28669 11.239995l122.032334 0L800.17684 327.062987 800.17684 327.062987 800.17684 327.062987zM800.17684 327.062987" fill="#a9b7b7"></path></g></g></svg>