<?xml version="1.0" standalone="no"?><!DOCTYPE svg PUBLIC "-//W3C//DTD SVG 1.1//EN" "http://www.w3.org/Graphics/SVG/1.1/DTD/svg11.dtd"><svg width="200" height="200" viewBox="0 0 200 200" version="1.1" xmlns="http://www.w3.org/2000/svg" xmlns:xlink="http://www.w3.org/1999/xlink"><defs><style type="text/css"><![CDATA[
@font-face { font-family: ifont; src: url("http://at.alicdn.com/t/font_1442373896_4754455.eot?#iefix") format("embedded-opentype"), url("http://at.alicdn.com/t/font_1442373896_4754455.woff") format("woff"), url("http://at.alicdn.com/t/font_1442373896_4754455.ttf") format("truetype"), url("http://at.alicdn.com/t/font_1442373896_4754455.svg#ifont") format("svg"); }

]]></style></defs><g class="transform-group"><g transform="scale(0.1953125, 0.1953125)"><path d="M780.8 227.555556l-31.288889 128L523.377778 355.555556l32.711111 29.866667L395.377778 541.866667 201.955556 355.555556 99.555556 355.555556l78.222222 270.222222L611.555556 625.777778l72.533333 0-14.222222 56.888889L213.333333 682.666667l0 14.222222 93.866667 0c-17.066667 9.955556-29.866667 28.444444-29.866667 49.777778 0 31.288889 25.6 56.888889 56.888889 56.888889s56.888889-25.6 56.888889-56.888889c0-21.333333-12.8-39.822222-29.866667-49.777778l173.511111 0c-17.066667 9.955556-29.866667 28.444444-29.866667 49.777778 0 31.288889 25.6 56.888889 56.888889 56.888889s56.888889-25.6 56.888889-56.888889c0-21.333333-12.8-39.822222-29.866667-49.777778l92.444444 0 110.933333-455.111111L896 241.777778l0-14.222222L780.8 227.555556zM315.733333 147.911111 155.022222 308.622222 201.955556 355.555556 523.377778 355.555556Z" fill="#ecf0f1"></path></g></g></svg>