<?xml version="1.0" standalone="no"?><!DOCTYPE svg PUBLIC "-//W3C//DTD SVG 1.1//EN" "http://www.w3.org/Graphics/SVG/1.1/DTD/svg11.dtd"><svg width="200" height="200" viewBox="0 0 200 200" version="1.1" xmlns="http://www.w3.org/2000/svg" xmlns:xlink="http://www.w3.org/1999/xlink"><defs><style type="text/css"><![CDATA[
@font-face { font-family: ifont; src: url(http://at.alicdn.com/t/font_1442373896_4754455.eot?#iefix) format(embedded-opentype), url(http://at.alicdn.com/t/font_1442373896_4754455.woff) format(woff), url(http://at.alicdn.com/t/font_1442373896_4754455.ttf) format(truetype), url(http://at.alicdn.com/t/font_1442373896_4754455.svg#ifont) format(svg); }

]]></style></defs><g class="transform-group"><g transform="scale(0.1953125, 0.1953125)"><path d="M891.587759 530.135032c-0.831948-5.9055-6.573719-28.386514-8.506744-33.576723-58.633399-157.683299-177.228447-184.062086-268.391726-180.870394-35.429931 1.240247-68.769246 12.235672-95.359858 24.405853 130.825604 3.822049 235.727793 111.002117 235.727793 242.750743 0 134.162606-108.769262 242.931868-242.935961 242.931868-134.167722 0-242.930845-108.769262-242.930845-242.931868 0-29.844725 5.40408-58.411341 15.249309-84.821851l-0.062422-1.789763c83.427084-214.669174 417.993976-324.875159 506.613316-329.299935 49.926086-2.493797 38.520315-31.955806 38.520315-31.955806C800.168654 33.549094 709.154777 59.125609 709.154777 59.125609c-344.472496 125.320217-568.808844-1.033539-568.808844-1.033539s15.255449 142.03797 168.116929 190.486402l-2.4017 6.886851c0 0-14.488992 11.116175-29.501918 23.357987l-0.007163-0.152473c-92.313475 70.015633-147.967006 180.869371-147.967006 305.664631 0 211.751728 171.661661 383.41339 383.41646 383.41339 211.749682 0 383.411343-171.661661 383.411343-383.41339C895.413901 565.937446 894.099976 547.843346 891.587759 530.135032zM517.132392 697.43127l100.17656-97.837282c8.940626-8.92016 8.928347-23.397896 0-32.355919l-88.99387-89.134063c-8.930393-8.951883-23.421432-8.974395-32.344662-0.062422l-104.795764 99.31289L517.132392 697.43127z" fill="#11cd6e"></path></g></g></svg>