<?xml version="1.0" standalone="no"?><!DOCTYPE svg PUBLIC "-//W3C//DTD SVG 1.1//EN" "http://www.w3.org/Graphics/SVG/1.1/DTD/svg11.dtd"><svg width="335.7421875" height="200" viewBox="0 0 335.7421875 200" version="1.1" xmlns="http://www.w3.org/2000/svg" xmlns:xlink="http://www.w3.org/1999/xlink"><defs><style type="text/css"><![CDATA[
@font-face { font-family: ifont; src: url(http://at.alicdn.com/t/font_1442373896_4754455.eot?#iefix) format(embedded-opentype), url(http://at.alicdn.com/t/font_1442373896_4754455.woff) format(woff), url(http://at.alicdn.com/t/font_1442373896_4754455.ttf) format(truetype), url(http://at.alicdn.com/t/font_1442373896_4754455.svg#ifont) format(svg); }

]]></style></defs><g class="transform-group"><g transform="scale(0.1953125, 0.1953125)"><path d="M59.598067 36.718818c-0.610026 2.941587-1.178806 5.646544-1.178806 5.646544L7.487478 267.284947 0 323.915377c0.067298 14.356246 2.985005 26.941027 8.972382 37.430877 19.325465 33.681711 76.863336 38.7204 109.427027 38.7204 43.494237 0 83.495475-9.235063 109.707075-25.33021 46.368525-27.39909 58.60596-70.869446 69.375858-109.233816l5.325249-20.326256c1.764952-7.131448 40.824014-164.642022 53.120064-208.06896-42.50213 0.449379-62.405058 0.093349-72.445529-0.644761-2.909023 13.229542-9.13303 41.850856-16.036532 73.633018-19.071468 87.711387-26.042269 119.817016-30.316796 131.526919l1.526152 0.35603c-9.284994 40.628632-16.644388 72.701697-42.137416 93.290633-14.840359 12.068104-32.266276 18.164027-51.761072 18.164027-33.141154 0-53.196046-17.358618-56.504517-48.921519l-0.551412-9.617143c6.004745-38.948345 8.03889-52.210451 9.295848-57.307754l-0.288731-0.067298c1.745414-6.938237 39.33911-157.85792 51.711141-200.429518C95.485426 37.463441 71.410004 37.463441 59.598067 36.718818L59.598067 36.718818zM858.747952 220.881687c1.23742-2.969809 2.54431-5.911395 3.866396-8.811735 5.453333-12.135402 10.617934-23.649923 11.08251-39.753754-27.509806-11.872722-55.03698-17.877466-81.865119-17.877466-102.695027 0-179.415083 89.6435-179.415083 169.832674 0 28.49323 10.118624 52.685881 29.274758 69.918587 32.266276 29.018591 88.380028 37.430877 162.223625 23.947338 11.236644-12.330784 15.747801-32.622306 20.495587-54.018822 0.160648-0.644761 0.288731-1.289522 0.432012-1.934283-0.805409 0.162818-1.628185 0.288731-2.45096 0.45155-17.697281 3.356231-39.729874 7.520042-59.810817 7.520042-27.331791 0-45.079003-7.648126-54.212033-23.430661-12.669447-31.621515-9.845089-62.437621 7.385445-87.8373C743.639645 217.812017 804.338366 201.095989 858.747952 220.881687L858.747952 220.881687zM1119.070782 415.975102c6.547473-39.365161 13.331575-79.281733 29.884785-152.955999 7.548264-34.141945 15.485121-68.281718 23.558745-102.228281-37.12695 7.072834-51.424581 9.235063-88.236748 14.74701l-3.63845 0.551412-4.901921 37.62626-12.135402-23.100682c-7.292096-13.848252-17.901346-23.337312-32.479025-28.951292-3.256369-1.254788-7.726278-1.899549-12.923444-1.899549-20.57374 0-56.341698 10.676549-89.398187 40.882629-23.558745 21.785109-39.187146 52.212622-49.142952 95.648244-14.568995 62.439792-2.477011 100.293998 37.007549 115.779118 15.281055 6.360774 29.774068 9.293677 45.775866 9.293677l4.75647-0.093349c16.509791-0.940005 33.605729-9.717005 52.067171-26.754329l20.614987-19.00417-10.761214 41.688037C1064.847894 415.753669 1079.010929 415.753669 1119.070782 415.975102L1119.070782 415.975102zM1033.912388 355.697539c-9.226379 13.101458-30.197396 21.396516-44.206296 21.396516-14.519064 0-30.264694-9.456496-30.909456-36.015442-0.195382-14.644977 2.789623-29.552635 6.402022-46.140579 10.455116-44.757708 23.76064-88.321414 61.167637-88.321414 10.633131 0 19.614197 4.224596 25.992338 12.2027 11.32131 14.163035 13.474855 38.585803 6.224007 70.632817l-0.694692 2.839554C1052.441128 314.424146 1044.758268 341.630025 1033.912388 355.697539L1033.912388 355.697539zM1423.947254 642.030075l14.195598-46.919937-9.421761 0c-10.667865 0-17.688597-2.153545-22.030422-6.810153-2.120982-2.264262-4.587139-6.258741-4.207229-12.304733l-0.805409-29.678548-87.370554 0 1.704166 63.149681c-0.382081 8.648916 1.94948 15.357037 6.953433 20.643209 9.030997 9.452154 26.170353 13.592085 50.04171 11.955216L1423.947254 642.030075 1423.947254 642.030075zM1304.538369 546.527282c-83.063463 1.873498-140.303919 5.001783-153.192628 8.368869-22.981282 5.943959-48.098743 23.88004-48.346227 24.049371l-21.175083 15.187706 14.390981-48.268074-79.985109 0-18.613406 62.446305L892.939827 955.446918l-19.970226 0-14.332366 46.329449 196.324322 0-6.640822 21.724324 77.855444 0 6.462807-21.724324 27.179827 0 15.671819-51.433265-27.179827 0 106.798052-353.459328 33.768548 0L1304.538369 546.527282 1304.538369 546.527282zM1071.412734 951.209296 974.305637 951.209296l28.204498-93.0692 96.979014 0L1071.412734 951.209296 1071.412734 951.209296zM1115.441015 804.755181l-5.733381 0.694692c-0.227946 0.036906-24.329419 3.052303-39.610474 6.56484-14.542944 4.313604-43.476869 19.121399-43.774284 19.258167l-18.589526 9.521623 34.734604-115.490387 97.241694 0L1115.441015 804.755181 1115.441015 804.755181zM1154.365481 676.747311l-6.165392 0.384252c-0.227946 0.041247-23.515327 1.567399-38.737767 5.492409-15.009691 4.13776-43.426938 16.824574-43.724353 16.961341l-17.825364 7.962908 33.733813-110.666619 96.733701 0L1154.365481 676.747311 1154.365481 676.747311zM1279.905023 678.039004l-14.212966 47.124003 113.421507 0-22.123772 70.237711L1242.65216 795.400718l-11.82062 39.831907 105.306635 0-85.564355 120.984967c-6.156709 9.030997-11.957387 12.856145-19.342832 15.986601-6.308672 3.058816-14.230333 6.504055-23.836622 6.504055l-21.21633 0-13.661554 45.280898 60.820291 0c29.806632 0 51.287813-11.160662 69.655906-36.17609l64.602021-88.699153 14.534261 93.668372c2.010265 11.779373 11.694707 17.061203 13.618136 18.003379 2.086247 1.009474 4.222425 2.255578 6.436756 3.545101 5.173285 2.985005 10.075206 5.835413 15.98443 6.291305 10.837196 0.586146 18.767541 0.933492 24.312052 0.933492l29.070692 0 15.951867-52.720616-1.873498 0c-9.27631 0-25.68624-0.898758-31.104838-6.842717-3.492999-5.003954-4.222425-9.556358-5.071252-14.838189l-10.930546-69.692812-57.885217 0 35.34463-42.219911 112.014755 0 11.989951-39.834078-106.001327 0 22.208437-70.237711 105.449915 0 14.347562-47.124003L1279.905023 678.045517 1279.905023 678.039004zM282.236023 695.480117l-13.763587 45.461084 59.988832 0-21.218501 71.73347-60.666156 0-14.595046 48.626274 60.260196 0-38.609683 127.760386c-2.678906 8.820418-0.414644 12.094155 3.3063 17.478018l2.357611 3.577664c3.825148 5.663911 6.675557 8.447021 14.078369 10.253221 10.387817 2.301168 16.83977 3.621082 25.68624 3.621082l115.694453 0 15.797732-52.729299-40.509232 5.698646c-16.917923-0.102033-37.252863-1.840934-43.960983-11.015211-2.535626-3.477802-3.197754-7.68286-1.873498-11.82062l28.187131-93.798627 108.393673 0 14.490843-47.649364-108.536953 0 21.965295-71.73347 106.12724 0 14.061002-45.461084L282.236023 695.482288 282.236023 695.480117zM371.938137 646.684512l19.394934-16.509791 145.188473 0 14.618926-48.446089-111.708657 0 19.114887-36.141355-88.347465 0L345.487737 590.488265c-6.842717 12.617345-12.999425 20.258958-19.351516 24.049371-5.062569 3.54293-13.626819 5.103816-29.077205 5.103816l-7.80226 0-13.848252 45.810601 35.566063 0c22.108575 0 39.347793-8.757462 45.011705-11.640434 4.443858-2.401029 7.854362-3.301958 10.355254-3.961916C369.0899 649.118105 369.749857 648.94009 371.938137 646.684512L371.938137 646.684512zM807.909517 790.049418c8.92028-0.872707 19.310269-4.417807 31.597635-10.811145 12.211384-6.810153 17.758066-13.726681 21.878459-20.191659 3.314984-4.621873 14.017584-20.988384 23.751956-54.424782l47.666731-158.587346-137.887693 0.694692c0.449379 0.034735-44.349576 6.886135-63.635965 14.0089-18.732806 7.68286-46.919937 30.0628-47.199985 30.273378l-10.057839 8.021523 165.794777 0-16.331777 54.144735-6.673386-0.067298c-0.017367 0-10.769898-0.102033-24.61598-0.102033-46.309911 0-55.629639 1.21354-57.385907 1.560886-48.081375 8.242956-76.075295 33.336536-76.353172 33.581849l-13.568205 12.372032 163.37638 0-14.314999 44.175903-4.450371 3.677526-4.087829 0.245313c-0.636077 0-1.458853-0.067298-2.570361-0.201895-2.186109-0.247484-6.656018-0.766332-15.500317 0.37991l-144.697847 0.069469 43.444306-143.503845-3.825148 3.030594 17.918714-62.075079-74.353761 0-127.897153 424.387389c-3.697064 13.381506-7.274729 26.941027-8.03889 34.276541-0.075982 2.18828 7.572144 8.718386 10.837196 11.499325l2.713641 2.301168c3.40182 2.600753 10.405185 2.915536 17.825364 3.297616 2.401029 0.110717 4.834623 0.212749 7.224798 0.416815 11.195397 1.007304 27.492439 1.49793 49.915797 1.49793l64.762669 0 16.103831-54.91758-50.56707 4.836794-0.102033 0c-11.227961 0-18.715439-5.904883-21.980491-10.947913-4.808572-6.293476-2.655026-14.002387 1.246104-28.043851l0.677325-2.470499 42.775665-141.176626 151.234465 0C784.962969 791.126191 798.963186 790.748452 807.909517 790.049418L807.909517 790.049418zM858.6025 821.086957l-53.23078 0-6.877452 22.312641c-1.806199 5.833243-4.723906 10.353083-8.911597 13.761416-6.640822 4.274527-14.026267 4.799888-21.149032 4.799888l-31.004976 0 1.324257-36.948935-72.11555 0-3.460435 171.621506c-0.312611 12.517483 1.239591 15.467753 6.343407 18.632944 9.106979 7.190063 51.127166 7.190063 73.68512 7.190063l49.937506 0 14.493013-48.828169-54.492081 2.919878-1.654236-0.59483c-2.95027-1.009474-6.44544-2.56819-10.10777-6.291305-5.859293-3.230318-7.980275-8.928964-7.42018-20.604133l0.414644-54.216375 59.945413-2.329389c25.966287 0 35.770129-8.271178 44.419046-15.604521 7.554776-6.530106 10.218486-14.323682 13.696288-26.313633L858.6025 821.086957 858.6025 821.086957zM1589.811499 604.421183l30.010698-69.089298 85.514424-269.388562c7.53958-26.964907 12.007318-47.40188 13.168757-60.505509 1.984214-23.183177-2.780939-41.501339-14.525577-55.924883-11.160662-13.798321-41.323324-22.243172-64.050609-23.176664-17.273953-0.872707-33.903144 1.873498-49.557596 7.817457-15.934499 6.048163-33.885777 16.579261-53.315446 31.27634l-21.116468 15.993114 50.30439-178.709537L1501.294704 0l-124.13279 443.128879 64.975418 2.704957 35.108001-125.530858c11.712074-41.985452 20.436973-68.121071 26.678347-79.833145 11.032579-21.029632 26.18772-38.787698 44.987825-52.764034 14.347562-10.557149 29.263904-15.917132 44.343064-15.917132l2.678906 0.043418c13.53347 0.551412 24.201335 5.383864 31.699668 14.382297 7.32683 8.8964 10.455116 20.267641 9.345779 33.783744-0.610026 6.742855-3.764363 20.436973-9.973173 43.164258L1533.198437 549.892196l-19.581633 31.766966c-3.562468 4.901921-7.352881 9.178619-13.346772 11.015211-3.603715 1.806199-9.269797 2.78311-17.688597 2.78311l-5.996061 0-13.661554 44.968286 52.881263 0.840143C1548.631456 641.163881 1577.667414 626.705602 1589.811499 604.421183L1589.811499 604.421183zM1355.886968 233.525083c10.930546 3.034936 22.158506 6.165392 35.691976 7.910806l13.17744-52.668514c-25.525592-9.905875-51.144533-14.909829-76.244626-14.909829-65.474728 0-109.070998 33.557969-121.851161 64.730105-9.191645 22.42987-4.096512 44.792443 14.382297 63.023768 17.145869 13.713656 32.800321 17.232705 47.896848 20.649722 8.114872 1.840934 15.782536 3.553784 23.489276 6.810153l2.80699 1.966847c11.397292 12.135402 10.921862 21.292312 8.523003 26.812943-6.699437 15.561103-36.015442 18.98029-82.383967 10.685232 0.449379-0.160648 1.254788 0.221433-50.211041-8.777l-13.168757 59.344071c29.867417 7.131448 60.184214 10.871931 88.126032 10.871931 54.036189 0 94.391286-13.813518 113.658136-38.846313 14.067515-18.300794 17.113305-42.825596 9.098295-72.897079-6.810153-12.100668-33.657831-26.949711-48.439576-33.588362l-1.806199-0.458063c-7.192234-1.806199-24.040688-6.063359-30.748808-18.715439-2.357611-4.452542-4.426491-11.837987-0.822776-21.785109 2.340244-6.488858 9.48906-17.326055 31.020172-17.326055 7.945541 0 14.525577 1.517468 14.814309 1.578254C1340.189098 229.209309 1347.822028 231.302069 1355.886968 233.525083L1355.886968 233.525083zM655.895694 65.337961c-21.099101-29.459286-65.340132-29.713283-116.584527-30.036749l-26.152986 0.323466c-56.426364 0.610026-85.114976 0.551412-100.693445-0.390764-0.779358 3.679697-1.491417 6.912186-1.491417 6.912186 0-0.034735-23.940826 111.74122-24.346786 113.710238-0.052102 0.26268-47.269454 194.839418-59.005408 243.116176 21.411712-0.230117 37.804274-0.35603 50.345637-0.35603 12.144086 0 20.777806 0.125913 26.925831 0.388593 1.730217-8.199537 4.409124-21.140348 7.038099-33.818479 4.383073-21.131665 6.690753-32.266276 8.631549-38.108202l-0.601343-0.128084c11.931336-50.082957 12.576097-51.763243 12.797531-52.37327l1.033354-1.908232c0.805409-1.09414 5.003954-6.647335 10.159872-9.582409l1.908232-1.068089 7.648126 0c50.211041 0 107.130202 0 150.598388-31.877683 29.172725-21.878459 49.440367-54.212033 58.529978-93.518579 2.570361-10.778582 3.968428-22.327838 3.968428-32.496393C666.613491 87.607184 663.129176 74.896489 655.895694 65.337961L655.895694 65.337961zM581.728632 147.205251C575.597974 174.732424 557.924574 198.035002 534.435298 209.586428c-18.910821 9.41959-41.17136 10.192435-64.228624 10.192435l-24.203506 0 3.01974-15.426506c19.392763-84.31608 24.455332-106.357357 25.940236-112.488014l2.407542-18.487493 18.309478 1.969018c0 0 51.305181 4.511157 54.485568 4.680488l2.628975 0.542728C577.666854 90.023409 588.749363 115.549001 581.728632 147.205251L581.728632 147.205251zM581.728632 147.205251" fill="#11cd6e"></path></g></g></svg>